<svg width="442" height="397" viewBox="0 0 442 397" fill="none" xmlns="http://www.w3.org/2000/svg">
<g clip-path="url(#clip0_536_25212)">
<path d="M401.744 28.1614C399.428 17.9092 399.275 15.4661 396.063 13.5902C395.298 13.143 394.151 12.7831 392.797 12.4995C390.208 10.0673 385.455 6.39181 379.491 5.44294C370.369 3.98146 366.851 4.52679 364.612 3.07621C362.361 1.61473 356.462 0.207777 354.638 3.11984C352.835 5.98827 352.89 15.2807 355.632 19.2071C355.25 23.5588 355.446 29.4593 355.413 35.9814C355.282 65.102 363.126 66.738 377.109 67.0216C394.588 67.3924 404.06 38.4027 401.744 28.1614Z" fill="#212C59"/>
<path d="M370.838 37.8029C367.725 35.8288 364.907 42.5037 364.907 42.5037C364.907 42.5037 364.83 41.5221 362.623 38.0211C360.417 34.531 363.235 20.9413 363.235 20.9413C360.045 22.0756 355.621 19.1963 355.621 19.1963C355.238 23.548 355.435 29.4485 355.402 35.9706C355.315 55.0026 358.636 62.2882 364.852 65.1349C363.585 60.3905 366.349 49.6257 366.349 49.6257C368.49 48.426 373.963 39.777 370.838 37.8029Z" fill="#EAA794"/>
<path d="M278.561 21.9336C278.561 21.9336 275.578 32.4039 276.343 41.2165C277.108 50.0181 280.145 58.078 281.51 58.6779C282.876 59.2778 288.196 58.6779 288.196 58.6779L294.587 47.5968L298.028 26.1872L278.561 21.9336Z" fill="#EAA794"/>
<path d="M93.7311 51.3809C93.7311 51.3809 97.6857 49.2541 98.4395 50.9992C99.2042 52.7442 96.779 61.5895 93.2832 60.8914C89.7765 60.1825 89.7765 59.3536 89.7765 59.3536L93.7311 51.3809Z" fill="#EAA794"/>
<path d="M83.5388 69.2793C83.5388 69.2793 83.6917 75.6815 84.8279 76.8158C85.964 77.95 72.5161 80.4586 70.3094 79.6187C68.1027 78.7789 67.3489 78.3318 67.3489 78.3318C67.3489 78.3318 69.7085 75.5288 68.9438 72.7149C68.1791 69.9119 83.5388 69.2793 83.5388 69.2793Z" fill="#EAA794"/>
<path d="M32.2487 112.72C32.2487 112.72 22.7991 137.27 21.6521 144.371C21.0185 148.308 53.584 174.898 53.584 174.898L61.4168 164.264L36.7059 142.549L44.4622 121.969L32.2487 112.72Z" fill="#EAA794"/>
<path d="M55.5614 384.032C55.5614 384.032 54.5126 395.451 55.4194 396.139C56.337 396.826 73.2807 396.826 76.0227 396.52C78.7647 396.215 73.6631 393.107 72.374 392.572C71.0849 392.038 66.2126 389.54 65.3824 388.929C64.5412 388.319 63.5471 384.032 63.5471 384.032H55.5614Z" fill="#0C467C"/>
<path d="M85.8545 384.294C85.8545 384.294 85.7344 395.451 86.652 396.139C87.5697 396.826 104.513 396.826 107.255 396.52C109.997 396.215 104.896 393.107 103.607 392.572C102.318 392.038 97.4453 389.54 96.6151 388.929C95.7739 388.319 94.5285 384.032 94.5285 384.032L85.8545 384.294Z" fill="#0C467C"/>
<path d="M39.3061 83.8281C39.3061 83.8281 24.1649 110.898 24.1649 123.877C24.1649 126.615 44.233 135.493 47.2044 130.705C50.1649 125.928 39.3061 83.8281 39.3061 83.8281Z" fill="#D8D8DB"/>
<path d="M73.6522 76.2919C81.5833 76.521 92.9992 70.3915 101.444 78.7895C120.059 97.3089 109.539 149.988 106.491 164.254H49.2144C49.2144 164.254 33.7892 96.84 39.7102 82.6178C42.6816 75.4958 55.6925 75.7575 73.6522 76.2919Z" fill="#D8D8DB"/>
<path d="M45.4454 79.0949C45.4454 79.0949 43.774 75.2994 42.3319 75.2231C40.8899 75.1468 38.6395 75.4849 37.1647 76.7064C34.805 78.6369 34.2807 82.3342 34.4992 83.8284C34.7286 85.3226 37.2084 86.2497 38.0059 86.2279C38.7924 86.2169 40.737 86.2279 40.737 86.2279L45.4454 79.0949Z" fill="#EAA794"/>
<path d="M112.215 117.791L110.664 126.833C110.664 126.833 120.802 149.911 123.38 150.816C125.969 151.733 137.057 151.733 137.057 151.733L116.071 112.72L112.215 117.791Z" fill="#EAA794"/>
<path d="M97.3469 75.8555C97.3469 75.8555 102.547 76.2808 108.785 85.8459C115.023 95.411 123.795 117.421 122.298 120.911C120.802 124.401 106.807 129.712 106.807 129.712L97.3469 75.8555Z" fill="#D8D8DB"/>
<path d="M114.214 200.464C113.755 181.639 106.491 164.254 106.491 164.254H49.2141C49.2141 164.254 38.0494 177.385 38.0494 210.683C38.0494 219.332 41.9604 240.687 41.9604 240.687L45.7948 274.65L54.3595 383.727C54.4141 384.469 55.0368 385.047 55.7906 385.047H64.541C65.2948 385.047 65.9175 384.469 65.9721 383.727L76.1536 250.7L84.8822 383.705C84.9368 384.458 85.5595 385.047 86.3133 385.047H95.0856C95.8175 385.047 96.4293 384.502 96.5167 383.771C98.199 368.393 114.651 218.318 114.214 200.464Z" fill="#212C59"/>
<path d="M184.392 25.5004C184.392 25.5004 184.96 38.9373 185.31 41.0968C185.649 43.2563 188.5 44.8487 188.5 46.561C188.5 48.2734 185.987 51.12 185.419 51.9162C184.851 52.7123 184.96 60.8705 182.797 62.5937C180.634 64.3279 156 58.8637 156 58.8637L153.902 38.7083C153.892 38.7083 171.163 22.6538 184.392 25.5004Z" fill="#EAA794"/>
<path d="M147.654 57.2709C147.654 57.2709 137.046 43.2669 137.057 26.1871C137.057 17.8763 143.109 17.8327 146.19 14.4626C149.271 11.0924 157.027 4.21035 169.229 3.69774C181.432 3.17423 181.891 -2.26817 185.998 1.10197C190.106 4.47211 187.713 15.7604 185.998 17.3201C184.283 18.8797 187.025 16.7966 188.85 20.3085C190.674 23.8095 185.66 28.1503 180.864 28.6411C176.079 29.1319 175.161 28.6411 175.161 28.6411C175.161 28.6411 177.969 34.7052 176.909 38.9915C175.85 43.2778 173.337 48.7202 172.998 50.0181C172.66 51.3159 171.283 42.6779 168.661 41.9035C166.039 41.1292 164.445 46.6479 165.919 49.2437C167.405 51.8395 171.054 55.7331 169.109 59.6268C167.165 63.5095 147.654 57.2709 147.654 57.2709Z" fill="#212C59"/>
<path d="M136.303 384.032C136.303 384.032 135.255 395.451 136.161 396.139C137.079 396.826 151.543 396.826 154.285 396.52C157.027 396.215 152.843 391.416 151.543 390.882C150.254 390.347 146.321 387.599 145.491 386.988C144.65 386.377 144.289 384.032 144.289 384.032H136.303Z" fill="#C16E4F"/>
<path d="M173.708 384.294C173.708 384.294 173.588 395.451 174.506 396.139C175.424 396.826 192.367 396.826 195.109 396.52C197.851 396.215 192.75 393.107 191.461 392.572C190.171 392.038 185.299 389.54 184.469 388.929C183.628 388.319 182.382 384.032 182.382 384.032L173.708 384.294Z" fill="#C16E4F"/>
<path d="M325.459 186.95L326.366 289.112L351.918 383.607L341.463 385.058L302.343 295.187L293.538 239.018L278.561 385.527L267.155 384.589L264.326 200.42L325.459 186.95Z" fill="#EAA794"/>
<path d="M281.149 387.446C280.789 385.254 278.462 384.13 278.462 384.13C278.462 384.13 267.767 383.563 266.784 384.163C265.812 384.774 261.551 387.075 257.782 387.446C254.396 387.773 246.006 390.063 244.586 393.597C244.345 394.197 244.793 394.851 245.449 394.851H280.297C282.002 394.862 281.521 389.638 281.149 387.446Z" fill="#0C467C"/>
<path d="M354.31 382.026C353.163 380.128 350.585 379.921 350.585 379.921C350.585 379.921 340.425 383.302 339.737 384.229C339.355 384.742 338.208 386.105 336.7 387.523C333.018 388.035 325.459 390.26 324.115 393.598C323.875 394.198 324.323 394.852 324.978 394.852H341.048L356.244 389.224C357.817 388.613 355.446 383.935 354.31 382.026Z" fill="#0C467C"/>
<path d="M146.638 177.386L120.638 184.671L133.758 383.411C133.824 384.338 134.588 385.047 135.517 385.047H144.573C145.491 385.047 146.245 384.349 146.321 383.444L158.534 240.688L172.037 383.466C172.124 384.371 172.878 385.058 173.785 385.058H181.934C182.863 385.058 183.628 384.338 183.693 383.411L195.907 191.193L146.638 177.386Z" fill="#0C467C"/>
<path d="M338.393 184.671L349.176 385.058H362.055L373.81 244.287L389.017 385.058H401.35L413.662 191.193L364.393 177.386L338.393 184.671Z" fill="#0C467C"/>
<path d="M195.907 200.464L201.642 385.178C201.664 385.985 202.276 386.65 203.073 386.748L212.184 387.883C213.091 387.992 213.921 387.337 214.019 386.421L229.663 233.544L248.355 385.658C248.464 386.519 249.229 387.152 250.092 387.086L258.766 386.498C259.596 386.443 260.251 385.767 260.295 384.927L267.582 203.485L195.907 200.464Z" fill="#212C59"/>
<path d="M185.638 62.6151C185.638 62.6151 171.72 56.791 153.247 57.3145C134.774 57.8381 118.584 66.2579 117.667 68.0793C116.749 69.9007 119.032 136.791 116.072 162.127C112.204 195.141 116.574 204.074 117.219 205.012C127.488 219.823 175.14 219.736 190.423 212.45C205.706 205.164 206.842 174.888 206.842 174.888L185.638 62.6151Z" fill="#F3D166"/>
<path d="M117.481 135.286C117.426 137.849 117.372 140.347 117.295 142.768C130.404 145.353 148.277 147.927 167.361 147.927C178.461 147.927 189.975 147.054 201.172 144.797L199.807 137.598C170.136 143.532 137.582 139.278 117.481 135.286Z" fill="#0CA6B4"/>
<path d="M114.946 174.103C114.761 176.796 114.64 179.272 114.564 181.552C127.859 184.3 146.922 187.267 167.351 187.267C180.056 187.267 193.274 186.089 205.979 183.035C206.569 179.24 206.766 176.327 206.82 175.302C174.145 183.864 136.271 178.531 114.946 174.103Z" fill="#0CA6B4"/>
<path d="M199.031 204.172C200.593 201.641 201.85 198.817 202.855 195.948C171.032 203.136 135.222 197.999 114.782 193.745C115.056 197.235 115.503 199.744 115.93 201.511C129.148 204.172 147.61 206.942 167.351 206.942C177.761 206.92 188.511 206.124 199.031 204.172Z" fill="#0CA6B4"/>
<path d="M116.727 154.798C116.541 157.492 116.334 159.968 116.082 162.127C116.082 162.149 116.082 162.171 116.072 162.193C129.279 164.854 147.687 167.602 167.361 167.602C179.651 167.602 192.422 166.49 204.734 163.654L203.379 156.51C172.419 163.632 137.549 158.997 116.727 154.798Z" fill="#0CA6B4"/>
<path d="M117.666 115.654C117.666 118.152 117.656 120.66 117.645 123.169C130.721 125.732 148.451 128.262 167.372 128.262C177.292 128.262 187.528 127.521 197.589 125.765L196.235 118.588C167.624 123.507 136.959 119.483 117.666 115.654Z" fill="#0CA6B4"/>
<path d="M117.448 76.292C117.448 78.4624 117.47 80.9927 117.491 83.8175C130.579 86.3806 148.375 88.9436 167.361 88.9436C174.91 88.9436 182.644 88.5074 190.346 87.5367L188.991 80.3383C162.445 83.534 135.123 79.8039 117.448 76.292Z" fill="#0CA6B4"/>
<path d="M182.022 61.3391C166.105 62.5606 150.243 61.5354 136.642 59.7686C130.688 61.3282 125.663 63.3459 122.276 65.0473C134.763 67.2832 150.592 69.2682 167.34 69.2682C173.708 69.2682 180.198 68.9628 186.698 68.2975L185.627 62.6152C185.638 62.6152 184.338 62.0808 182.022 61.3391Z" fill="#0CA6B4"/>
<path d="M117.579 95.9785C117.601 98.4107 117.612 100.93 117.634 103.504C130.71 106.067 148.44 108.597 167.361 108.597C176.101 108.597 185.081 108.041 193.984 106.711L192.618 99.5013C165.034 103.515 136.074 99.6431 117.579 95.9785Z" fill="#0CA6B4"/>
<path d="M325.907 172.979C325.907 172.979 342.042 187.441 339.912 223.563C337.781 259.697 329.402 278.151 329.402 278.151H263.015C263.015 278.151 255.019 221.807 259.268 203.048C263.529 184.289 273.634 174.887 273.634 174.887L325.907 172.979Z" fill="#0C467C"/>
<path d="M333.237 243.806C329.403 240.807 325.426 237.698 321.177 237.044C316.02 236.248 311.913 238.593 307.936 240.85C304.266 242.933 300.475 245.082 295.548 245.158C290.337 245.213 284.809 242.334 279.457 239.531C274.093 236.717 268.991 234.055 264.228 234.295C262.283 234.394 260.394 234.928 258.624 235.68C258.711 236.978 258.799 238.276 258.886 239.574C260.634 238.669 262.502 238.025 264.414 237.927C268.215 237.731 272.847 240.174 277.752 242.748C283.509 245.769 289.398 248.888 295.592 248.801C301.447 248.714 305.85 246.216 309.717 244.013C313.475 241.886 316.72 240.043 320.598 240.643C323.908 241.156 327.491 243.959 330.965 246.674C332.877 248.169 334.799 249.663 336.766 250.862C336.984 249.597 337.203 248.299 337.421 246.958C336.067 246.02 334.657 244.918 333.237 243.806Z" fill="#D8D8DB"/>
<path d="M333.237 253.818C329.403 250.819 325.426 247.711 321.177 247.056C316.02 246.271 311.913 248.605 307.936 250.863C304.266 252.946 300.475 255.094 295.548 255.171C290.337 255.225 284.809 252.346 279.456 249.543C274.093 246.729 268.991 244.079 264.228 244.308C262.546 244.395 260.907 244.799 259.345 245.398C259.454 246.675 259.563 247.951 259.683 249.205C261.202 248.507 262.797 248.027 264.414 247.951C268.215 247.765 272.847 250.197 277.752 252.771C283.509 255.792 289.398 258.879 295.592 258.824C301.447 258.737 305.85 256.24 309.717 254.036C313.475 251.91 316.719 250.066 320.598 250.666C323.908 251.179 327.491 253.982 330.965 256.698C332.287 257.734 333.63 258.77 334.985 259.719C335.269 258.486 335.542 257.188 335.815 255.836C334.974 255.182 334.111 254.505 333.237 253.818Z" fill="#D8D8DB"/>
<path d="M277.763 262.773C283.52 265.794 289.409 268.902 295.603 268.826C301.458 268.739 305.861 266.241 309.728 264.038C313.486 261.911 316.73 260.068 320.609 260.668C323.919 261.181 327.502 263.984 330.976 266.699C331.599 267.179 332.221 267.67 332.844 268.139C333.183 266.972 333.532 265.707 333.882 264.333C333.663 264.169 333.445 263.994 333.226 263.82C329.392 260.821 325.415 257.712 321.166 257.058C316.009 256.262 311.902 258.607 307.925 260.864C304.255 262.947 300.464 265.096 295.537 265.172C290.326 265.216 284.799 262.348 279.446 259.545C274.082 256.731 268.98 254.058 264.217 254.309C262.851 254.375 261.53 254.669 260.251 255.084C260.383 256.349 260.514 257.603 260.645 258.803C261.868 258.334 263.135 258.007 264.414 257.941C268.226 257.778 272.847 260.199 277.763 262.773Z" fill="#D8D8DB"/>
<path d="M331.5 272.501C328.201 269.971 324.782 267.637 321.166 267.081C316.009 266.285 311.902 268.63 307.925 270.887C304.255 272.97 300.464 275.119 295.537 275.195C290.326 275.239 284.798 272.371 279.446 269.568C274.082 266.754 268.98 264.093 264.217 264.332C263.223 264.387 262.261 264.561 261.311 264.801C261.464 266.088 261.606 267.299 261.748 268.444C262.622 268.193 263.507 268.008 264.414 267.964C268.215 267.79 272.847 270.211 277.752 272.785C281.86 274.945 286.033 277.093 290.337 278.151H300.508C304.047 277.246 307.019 275.588 309.728 274.05C313.486 271.923 316.73 270.08 320.609 270.68C323.678 271.149 326.988 273.603 330.222 276.122C330.572 275.217 331.009 274.007 331.5 272.501Z" fill="#D8D8DB"/>
<path d="M295.602 178.705C301.458 178.617 305.86 176.12 309.728 173.917C309.957 173.786 310.176 173.666 310.394 173.546L301.633 173.862C299.775 174.549 297.776 175.029 295.537 175.062C293.865 175.073 292.161 174.767 290.435 174.277L281.543 174.604C286.098 176.872 290.763 178.748 295.602 178.705Z" fill="#D8D8DB"/>
<path d="M333.237 203.746C329.403 200.747 325.426 197.638 321.177 196.984C316.02 196.188 311.913 198.533 307.936 200.79C304.266 202.874 300.475 205.022 295.548 205.098C290.337 205.12 284.809 202.274 279.456 199.471C274.093 196.657 268.991 194.006 264.228 194.236C263.398 194.279 262.578 194.421 261.77 194.606C261.278 195.948 260.809 197.355 260.372 198.838C261.683 198.315 263.037 197.944 264.403 197.878C268.204 197.682 272.836 200.125 277.741 202.699C283.498 205.72 289.387 208.807 295.581 208.752C301.436 208.665 305.839 206.167 309.706 203.964C313.464 201.837 316.709 199.994 320.587 200.594C323.897 201.107 327.48 203.91 330.954 206.625C333.893 208.927 336.886 211.239 339.967 212.439C339.901 211.032 339.814 209.647 339.693 208.316C337.629 207.193 335.466 205.491 333.237 203.746Z" fill="#D8D8DB"/>
<path d="M333.237 193.734C329.403 190.735 325.426 187.627 321.177 186.972C316.02 186.176 311.913 188.521 307.936 190.779C304.266 192.862 300.475 195.01 295.548 195.087C290.337 195.109 284.809 192.262 279.456 189.459C274.956 187.092 270.651 184.878 266.577 184.344C265.943 185.424 265.298 186.601 264.665 187.867C268.423 187.801 272.945 190.157 277.763 192.676C283.52 195.698 289.408 198.828 295.603 198.73C301.458 198.642 305.861 196.145 309.728 193.942C313.486 191.815 316.73 189.972 320.608 190.571C323.919 191.084 327.502 193.887 330.976 196.603C333.565 198.62 336.187 200.671 338.885 201.958C338.612 200.3 338.284 198.73 337.934 197.224C336.416 196.221 334.843 194.989 333.237 193.734Z" fill="#D8D8DB"/>
<path d="M321.166 176.96C316.01 176.164 311.902 178.509 307.926 180.766C304.255 182.849 300.464 184.998 295.537 185.074C290.326 185.107 284.799 182.249 279.446 179.446C277.075 178.203 274.77 177.003 272.509 176.065C271.886 176.753 271.056 177.723 270.083 179.021C272.498 179.937 275.076 181.279 277.741 182.675C283.499 185.696 289.387 188.804 295.581 188.728C301.436 188.641 305.839 186.143 309.706 183.94C313.464 181.813 316.709 179.97 320.587 180.57C323.897 181.082 327.48 183.885 330.954 186.601C332.582 187.877 334.231 189.164 335.903 190.255C335.051 187.801 334.122 185.631 333.194 183.722C329.392 180.723 325.415 177.614 321.166 176.96Z" fill="#D8D8DB"/>
<path d="M333.237 233.794C329.403 230.795 325.426 227.686 321.177 227.032C316.02 226.236 311.913 228.581 307.936 230.838C304.266 232.921 300.475 235.07 295.548 235.146C290.337 235.212 284.81 232.322 279.457 229.519C274.093 226.705 268.991 224.054 264.228 224.283C262.098 224.392 260.055 225.014 258.143 225.898C258.187 227.206 258.242 228.548 258.307 229.889C260.219 228.821 262.294 228.035 264.425 227.926C268.226 227.752 272.858 230.173 277.763 232.747C283.52 235.768 289.409 238.866 295.603 238.8C301.458 238.713 305.861 236.215 309.728 234.012C313.486 231.885 316.731 230.042 320.609 230.642C323.919 231.155 327.502 233.958 330.976 236.673C333.346 238.527 335.739 240.382 338.197 241.669C338.361 240.403 338.525 239.095 338.678 237.764C336.919 236.673 335.094 235.245 333.237 233.794Z" fill="#D8D8DB"/>
<path d="M333.237 213.758C329.402 210.759 325.426 207.65 321.176 206.996C316.02 206.2 311.912 208.545 307.936 210.802C304.265 212.886 300.475 215.034 295.548 215.11C290.337 215.187 284.809 212.286 279.456 209.483C274.092 206.669 268.991 204.008 264.228 204.248C262.349 204.346 260.524 204.836 258.809 205.556C258.612 206.865 258.449 208.294 258.328 209.832C260.229 208.774 262.294 207.999 264.402 207.89C268.204 207.705 272.836 210.137 277.741 212.711C283.498 215.732 289.386 218.841 295.581 218.764C301.436 218.677 305.838 216.179 309.706 213.976C313.464 211.849 316.708 210.006 320.586 210.606C323.896 211.119 327.48 213.922 330.954 216.637C333.881 218.928 336.864 221.24 339.934 222.44C339.999 221.098 340.043 219.8 340.054 218.524C337.891 217.412 335.597 215.612 333.237 213.758Z" fill="#D8D8DB"/>
<path d="M333.237 223.781C329.403 220.782 325.426 217.674 321.177 217.019C316.02 216.223 311.913 218.568 307.936 220.826C304.266 222.909 300.475 225.058 295.548 225.134C290.337 225.21 284.809 222.309 279.457 219.506C274.093 216.692 268.991 214.031 264.228 214.271C262.065 214.38 259.989 215.023 258.056 215.918C258.034 217.248 258.012 218.623 258.023 220.03C260.011 218.874 262.185 218.023 264.414 217.903C268.215 217.728 272.847 220.15 277.752 222.724C283.509 225.745 289.398 228.82 295.592 228.777C301.447 228.689 305.85 226.192 309.717 223.989C313.475 221.862 316.72 220.019 320.598 220.619C323.908 221.131 327.491 223.934 330.965 226.65C333.674 228.766 336.427 230.903 339.246 232.169C339.366 230.893 339.475 229.595 339.573 228.264C337.552 227.152 335.422 225.483 333.237 223.781Z" fill="#D8D8DB"/>
<path d="M267.571 57.3912C283.411 53.4976 320.455 54.4791 331.227 71.6243C340.076 85.6938 331.445 98.4 332.745 119.243C334.155 141.797 335.029 164.287 332.822 171.005C328.561 183.93 320.608 174.539 299.022 174.888C277.435 175.237 260.59 188.859 256.122 174.888C251.654 160.917 234.251 65.593 267.571 57.3912Z" fill="#DE3E37"/>
<path d="M275.163 74.6238C275.163 74.6238 280.418 69.0396 281.783 69.2904C283.138 69.5413 282.122 72.1698 282.122 72.1698C282.122 72.1698 289.419 71.5917 293.145 72.8569C296.881 74.1221 299.415 79.8916 297.219 81.0259C295.013 82.1602 289.703 80.9714 287.355 82.073C285.006 83.1745 281.871 83.5999 280.516 83.0873C279.161 82.5747 274.661 82.5747 274.661 82.5747L275.163 74.6238Z" fill="#EAA794"/>
<path d="M251.555 75.1467C258.744 78.4405 270.487 85.8461 279.609 89.7179C288.731 93.5898 335.487 105.652 337.312 108.161C339.136 110.669 339.355 130.05 332.286 133.682C325.218 137.314 272.312 134.806 272.312 134.806C272.312 134.806 285.618 235.07 289.572 248.125C289.572 248.125 271.329 281.521 227.227 277.878C183.136 274.236 170.355 250.852 170.355 250.852C170.355 250.852 187.08 152.18 185.255 137.914C185.255 137.914 118.955 140.041 115.613 134.577C112.27 129.113 107.976 119.395 111.625 112.72C115.274 106.045 175.522 93.8951 188.598 82.9667C201.686 72.0274 236.283 68.1338 251.555 75.1467Z" fill="#F46B5C"/>
<path d="M275.513 157.459C275.513 157.459 270.258 151.875 268.893 152.125C267.538 152.376 268.554 155.005 268.554 155.005C268.554 155.005 261.256 154.427 257.531 155.692C253.795 156.957 251.261 162.727 253.456 163.861C255.663 164.995 260.972 163.806 263.321 164.908C265.67 166.009 268.805 166.435 270.16 165.922C271.514 165.41 276.015 165.41 276.015 165.41L275.513 157.459Z" fill="#EAA794"/>
<path d="M217.701 29.7971C223.338 25.9907 236.971 23.5476 245.252 31.1495C253.533 38.7405 250.725 53.6389 253.708 62.037C256.69 70.4351 264.26 75.6266 257.039 82.9231C249.818 90.2196 232.066 97.7343 219.733 92.8808C207.388 88.0274 199.949 79.0186 201.817 72.889C203.674 66.7595 210.097 57.6416 210.097 51.7412C210.097 45.8407 212.457 33.3418 217.701 29.7971Z" fill="#212C59"/>
<path d="M178.111 85.846C175.118 79.7056 177.652 63.5311 185.638 62.6149C193.623 61.6988 222.584 89.4888 230.799 88.8017C239.014 88.1145 271.394 72.4091 275.043 74.0014C278.692 75.5938 279.828 83.1084 276.867 86.9803C273.907 90.8521 240.434 116.352 228.199 117.726C215.975 119.089 184.469 98.8794 178.111 85.846Z" fill="#F3D166"/>
<path d="M117.677 68.0899C117.677 68.0899 93.7312 86.0967 85.9749 87.002C78.2186 87.9181 46.5161 77.6877 44.2329 78.6039C41.9497 79.52 38.5304 83.501 40.1254 86.6312C41.7203 89.7613 73.6522 115.239 84.5985 116.144C95.5447 117.061 114.52 100.821 117.743 98.3776C123.151 94.2767 120.561 66.7266 117.677 68.0899Z" fill="#F3D166"/>
<path d="M261.813 151.384C261.595 149.791 262.524 148.275 264.042 147.763C274.628 144.163 314.119 130.105 320.892 118.348C328.725 104.747 339.136 72.5399 344.161 68.0354C349.176 63.531 400.728 61.2515 408.484 65.3524C416.24 69.4533 442.011 124.106 442.011 135.94C442.011 148.919 415.781 170.547 415.781 170.547C415.781 170.547 419.889 197.573 407.566 200.452C395.255 203.332 338.229 204.859 333.674 200.452C329.108 196.046 334.133 147.021 334.133 147.021C334.133 147.021 326.442 156.281 321.515 158.255C314.272 161.145 278.91 167.187 267.734 169.052C265.866 169.369 264.129 168.071 263.867 166.206L261.813 151.384Z" fill="#0CA6B4"/>
<path d="M257.793 385.058C257.793 385.058 259.082 395.452 258.176 396.139C257.258 396.826 240.314 396.826 237.572 396.52C234.83 396.215 239.932 393.107 241.221 392.572C242.51 392.038 247.382 389.54 248.213 388.929C249.054 388.319 250.649 385.527 250.649 385.527L257.793 385.058Z" fill="#212C59"/>
<path d="M212.042 385.058C212.042 385.058 213.331 395.452 212.424 396.139C211.507 396.826 194.563 396.826 191.821 396.52C189.079 396.215 194.181 393.107 195.47 392.572C196.759 392.038 201.631 389.54 202.461 388.929C203.302 388.319 204.897 385.527 204.897 385.527L212.042 385.058Z" fill="#212C59"/>
<path d="M348.794 385.057C348.794 385.057 350.847 382.396 357.085 382.625C363.323 382.854 363.552 384.065 363.694 385.057C363.847 386.039 366.36 395.375 363.312 396.368C360.275 397.349 337.465 396.902 335.794 396.902C334.122 396.902 336.023 392.877 339.442 391.056C342.862 389.235 345.145 389.235 345.975 388.7C346.816 388.166 348.794 385.057 348.794 385.057Z" fill="#C16E4F"/>
<path d="M386.963 385.057C386.963 385.057 389.017 382.396 395.255 382.625C401.492 382.854 401.722 384.065 401.864 385.057C402.017 386.039 404.529 395.375 401.482 396.368C398.445 397.349 375.634 396.902 373.963 396.902C372.292 396.902 374.192 392.877 377.612 391.056C381.031 389.235 383.314 389.235 384.155 388.7C384.986 388.166 386.963 385.057 386.963 385.057Z" fill="#C16E4F"/>
<path d="M79.3547 21.6281C83.7791 22.1952 90.3009 24.4529 94.8673 30.4406C99.4337 36.4283 96.9211 50.4651 93.5017 60.3029C90.0824 70.1406 77.5303 77.8734 68.1791 74.3397C58.8278 70.8168 55.4085 60.3029 55.4085 60.3029C55.4085 60.3029 50.3942 57.2817 47.7068 64.5237C43.8833 74.8523 32.937 69.9007 31.1127 80.72C30.2496 85.8352 46.2757 98.1488 31.6807 106.569C17.0858 114.989 -0.928511 83.9047 2.2614 69.279C5.46225 54.6533 13.5572 53.868 24.7328 51.2395C35.9085 48.611 29.9656 40.7692 39.9505 39.3949C49.9354 38.0316 53.8135 46.5715 53.8135 46.5715C53.8135 46.5715 47.0076 17.5163 79.3547 21.6281Z" fill="#893E2A"/>
<path d="M53.1908 45.4698C53.1908 45.4698 54.9496 44.5537 57.3858 46.2987C59.8219 48.0438 57.6152 59.8884 55.4084 60.3028C53.2017 60.7173 53.1908 59.6811 53.1908 59.6811C53.1908 59.6811 55.5505 53.0499 55.8236 50.6178C56.0967 48.1965 53.1908 45.4698 53.1908 45.4698Z" fill="#F3D166"/>
<path d="M42.7141 40.453C42.7141 40.453 38.4536 39.1661 32.2267 41.5873C25.9888 44.0195 20.1225 52.8538 14.5073 54.8716C8.89221 56.8893 8.89221 56.8893 8.89221 56.8893L15.1082 57.3801C15.1082 57.3801 19.5216 53.7373 22.7115 50.5525C25.9015 47.3678 30.6754 43.1143 34.4443 42.8089C38.2241 42.5035 42.7141 40.453 42.7141 40.453Z" fill="#893E2A"/>
<path d="M46.2865 63.6406C46.2865 63.6406 44.0033 71.8533 39.0983 75.2016C34.1932 78.5499 31.0033 88.006 32.0302 89.5983C33.0571 91.1907 29.8672 88.933 29.8672 88.933C29.8672 88.933 34.084 77.5247 38.0823 74.34C42.0697 71.1553 42.7252 68.036 42.7252 68.036L46.2865 63.6406Z" fill="#893E2A"/>
<path d="M17.5992 101.203C16.9 100.701 15.3488 100.243 13.5572 99.7086C9.4059 98.487 3.7143 96.8074 1.30002 92.4448C-2.14116 86.228 2.33783 72.0276 2.53447 71.4277L3.83447 71.8422C3.79077 71.984 -0.655445 86.0862 2.5017 91.7904C4.64288 95.6731 10.0286 97.2546 13.9614 98.4107C15.9496 98.9996 17.5336 99.4577 18.4185 100.112L17.5992 101.203Z" fill="#893E2A"/>
<path d="M279.533 7.362C279.533 7.362 273.295 5.99867 271.93 10.2413C270.564 14.484 275.611 21.6278 278.561 21.9332C278.561 21.9332 278.014 31.651 280.287 35.1411C282.57 38.6312 282.264 41.0634 282.264 41.0634C282.264 41.0634 285.454 33.7778 287.89 34.8357C290.326 35.8936 288.655 44.7062 283.182 46.2222C283.182 46.2222 283.946 53.4315 287.748 55.5146C291.55 57.5978 296.182 57.5978 296.182 57.5978C296.182 57.5978 282.231 62.5821 286.339 71.6127C287.901 75.0374 293.134 75.8118 291.43 80.3707C289.714 84.9297 289.66 99.1519 299.219 100.406C308.788 101.671 313.89 94.0258 312.372 87.9617C310.853 81.8867 315.409 75.8227 319.057 73.0851C322.706 70.3476 322.837 66.334 317.801 60.8807C313.923 56.6816 305.369 55.4928 305.369 55.4928C305.369 55.4928 316.468 51.8282 318.598 33.3088C320.729 14.7894 306.068 7.66738 295.155 8.57263C284.252 9.48878 279.533 7.362 279.533 7.362Z" fill="#893E2A"/>
<path d="M293.177 57.3148C293.177 57.3148 293.21 58.7545 295.646 58.6781C298.082 58.6018 307.434 56.1478 307.663 55.5152C307.893 54.8826 307.893 54.2828 306.068 54.3591C304.244 54.4246 293.177 57.3148 293.177 57.3148Z" fill="#212C59"/>
<path d="M415.771 170.557C415.771 170.557 416.874 169.641 418.611 168.103C413.422 150.075 411.215 92.1172 411.215 92.1172C406.649 118.871 415.771 170.557 415.771 170.557Z" fill="#0C467C"/>
</g>
<defs>
<clipPath id="clip0_536_25212">
<rect width="442" height="397" fill="white"/>
</clipPath>
</defs>
</svg>
