<svg viewBox="0 0 356 316" fill="none" xmlns="http://www.w3.org/2000/svg">
<path d="M59.4937 277.463V283.167H101.669V277.463H59.4937Z" fill="#E0E0E0"/>
<path d="M65.2616 277.691C65.4115 277.691 65.4864 278.908 65.4864 280.353C65.4864 281.798 65.4115 283.091 65.2616 283.091C65.1118 283.091 64.9619 281.874 64.9619 280.353C64.9619 278.832 65.1118 277.691 65.2616 277.691Z" fill="#FAFAFA"/>
<path d="M64.2887 277.539C64.4386 277.539 64.5884 278.756 64.5884 280.277C64.5884 281.798 64.4386 282.939 64.2887 282.939C64.1389 282.939 64.064 281.722 64.064 280.277C64.064 278.832 64.1389 277.539 64.2887 277.539Z" fill="#FAFAFA"/>
<path d="M98.3737 277.691C98.5235 277.691 98.6734 278.908 98.6734 280.353C98.6734 281.798 98.5235 283.091 98.3737 283.091C98.2239 283.091 98.1489 281.874 98.1489 280.353C98.1489 278.832 98.2239 277.691 98.3737 277.691Z" fill="#FAFAFA"/>
<path d="M97.4743 277.539C97.6241 277.539 97.774 278.756 97.774 280.277C97.774 281.798 97.6241 282.939 97.4743 282.939C97.3244 282.939 97.2495 281.722 97.2495 280.277C97.2495 278.832 97.3244 277.539 97.4743 277.539Z" fill="#FAFAFA"/>
<path d="M92.0054 280.505C92.0054 280.657 87.1362 280.733 81.2181 280.733C75.3001 280.733 70.356 280.657 70.356 280.505C70.356 280.353 75.2252 280.201 81.2181 280.201C87.2111 280.201 92.0054 280.353 92.0054 280.505Z" fill="#FAFAFA"/>
<path d="M59.2687 303.247V314.656H101.444V303.247H59.2687Z" fill="#E0E0E0"/>
<path d="M102.043 311.462H101.818L101.069 311.842C100.15 312.215 99.1961 312.495 98.2227 312.679C96.6421 312.951 95.0173 312.712 93.5782 311.994C92.6996 311.5 91.9537 310.795 91.4057 309.941C90.7494 308.988 90.4565 307.826 90.5817 306.67C90.7149 306.028 90.9975 305.429 91.4057 304.921C91.6225 304.656 91.8993 304.448 92.2124 304.316C92.5256 304.183 92.8657 304.13 93.2036 304.16C93.5436 304.191 93.8732 304.295 94.1703 304.465C94.4674 304.636 94.7253 304.869 94.9266 305.149C95.3806 305.686 95.6674 306.348 95.7506 307.05C95.8118 307.798 95.7167 308.551 95.4714 309.258C95.2261 309.966 94.8362 310.614 94.3273 311.158C93.2341 312.257 91.8101 312.953 90.2821 313.135C88.6842 313.277 87.075 313.069 85.5626 312.527C83.943 312.028 82.5079 311.048 81.4425 309.712C80.8937 309.013 80.5555 308.168 80.4686 307.279C80.4301 306.807 80.4903 306.333 80.6452 305.888C80.8002 305.442 81.0464 305.035 81.3676 304.692C81.7546 304.37 82.2206 304.159 82.716 304.084C83.1911 304.084 83.6572 304.216 84.0644 304.464C84.8642 305.019 85.4266 305.862 85.6375 306.822C85.8101 307.732 85.7492 308.672 85.4606 309.551C85.1719 310.43 84.6653 311.219 83.9895 311.842C82.6238 312.976 80.9529 313.666 79.1951 313.82C77.5532 313.991 75.8942 313.81 74.3259 313.287C72.7563 312.852 71.4138 311.816 70.5803 310.397C70.1525 309.729 69.8826 308.969 69.7916 308.178C69.7006 307.386 69.7911 306.584 70.0559 305.833C70.2015 305.458 70.4341 305.124 70.7341 304.859C71.034 304.594 71.3924 304.406 71.7789 304.312C72.1576 304.243 72.5463 304.255 72.9203 304.346C73.2943 304.438 73.6454 304.608 73.9513 304.845C74.4763 305.319 74.8496 305.941 75.0232 306.633C75.1967 307.324 75.1626 308.052 74.9252 308.724C74.5422 309.928 73.8114 310.988 72.8276 311.766C71.1977 313.139 69.1743 313.939 67.0594 314.048C65.4471 314.102 63.848 313.735 62.4149 312.983C61.5367 312.525 60.7494 311.906 60.0927 311.158C59.8735 310.999 59.6939 310.791 59.5683 310.549C59.4185 310.473 59.4185 310.397 59.4185 310.397C60.3147 311.374 61.3815 312.173 62.5647 312.755C63.9249 313.479 65.4508 313.82 66.9845 313.744C69.0557 313.641 71.0335 312.838 72.6029 311.462C73.4988 310.696 74.1722 309.697 74.5506 308.572C74.7656 307.989 74.7945 307.352 74.6332 306.751C74.4718 306.15 74.1285 305.616 73.6517 305.225C73.4082 305.037 73.1306 304.901 72.835 304.822C72.5393 304.744 72.2313 304.726 71.9287 304.769C71.6152 304.847 71.3237 304.997 71.0769 305.208C70.83 305.419 70.6344 305.685 70.5054 305.986C70.2626 306.659 70.1769 307.38 70.2549 308.093C70.3329 308.805 70.5724 309.49 70.9548 310.093C71.7517 311.419 73.0072 312.395 74.4757 312.831C75.9971 313.332 77.608 313.487 79.1951 313.287C80.825 313.184 82.377 312.543 83.6149 311.462C84.2326 310.898 84.6954 310.181 84.958 309.381C85.2207 308.581 85.2741 307.726 85.1132 306.898C84.9606 306.095 84.5032 305.385 83.8397 304.921C83.5185 304.719 83.1432 304.626 82.7667 304.653C82.3902 304.68 82.0318 304.827 81.7421 305.073C81.4751 305.353 81.2701 305.688 81.1409 306.055C81.0117 306.423 80.9613 306.814 80.993 307.202C81.0517 308.017 81.3669 308.79 81.892 309.408C82.8941 310.642 84.2181 311.565 85.7124 312.07C87.1445 312.621 88.6886 312.804 90.2071 312.603C91.6415 312.51 92.9845 311.856 93.9527 310.777C94.4291 310.308 94.7971 309.737 95.0303 309.105C95.2634 308.474 95.3559 307.798 95.3011 307.126C95.2789 306.51 95.0523 305.919 94.658 305.45C94.2637 304.98 93.7248 304.66 93.1287 304.54C92.8567 304.543 92.5885 304.605 92.3427 304.723C92.0969 304.842 91.8794 305.013 91.7054 305.225C91.3539 305.673 91.0987 306.192 90.9563 306.746C90.8285 307.809 91.0667 308.884 91.6305 309.789C92.1754 310.579 92.8934 311.229 93.728 311.69C95.1054 312.432 96.6829 312.699 98.2227 312.451C99.1976 312.311 100.153 312.056 101.069 311.69L102.043 311.462Z" fill="#FAFAFA"/>
<path d="M63.0146 283.319V303.171H101.422V283.319H63.0146Z" fill="#EBEBEB"/>
<path d="M69.4569 284.004C69.6068 284.004 69.6817 288.339 69.6817 293.664C69.6817 298.988 69.6068 303.247 69.4569 303.247C69.3071 303.247 69.1572 298.912 69.1572 293.664C69.1572 288.415 69.3071 284.004 69.4569 284.004Z" fill="#E0E0E0"/>
<path d="M72.3783 283.776C72.5282 283.776 72.6031 288.035 72.6031 293.284C72.6031 298.532 72.5282 302.715 72.3783 302.715C72.2285 302.715 72.0786 298.532 72.0786 293.284C72.0786 288.035 72.2285 283.776 72.3783 283.776Z" fill="#E0E0E0"/>
<path d="M97.0998 283.167C97.2496 283.167 97.3995 287.579 97.3995 293.131C97.3995 298.684 97.2496 303.095 97.0998 303.095C96.9499 303.095 96.875 298.608 96.875 293.131C96.875 287.655 97.0248 283.167 97.0998 283.167Z" fill="#E0E0E0"/>
<path d="M93.7284 283.396C93.8782 283.396 93.9532 287.731 93.9532 293.131C93.9532 298.532 93.8782 302.867 93.7284 302.867C93.5786 302.867 93.4287 298.532 93.4287 293.131C93.4287 287.731 93.5786 283.396 93.7284 283.396Z" fill="#E0E0E0"/>
<path d="M300.485 240.041C304.455 237.911 309.1 237.683 313.519 238.367C315.917 238.824 318.389 239.508 320.037 241.334C321.685 243.159 321.91 246.354 320.112 247.875C318.314 249.396 317.415 248.94 315.992 248.94C312.546 248.864 308.725 248.255 305.953 250.385C304.38 251.602 303.332 253.58 301.459 254.188C299.586 254.796 297.488 253.656 296.515 251.982C295.629 250.218 295.442 248.177 295.99 246.278C296.202 244.952 296.72 243.696 297.501 242.612C298.282 241.528 299.304 240.647 300.485 240.041Z" fill="#EBEBEB"/>
<path d="M291.346 222.09C293.743 225.665 298.537 224.524 300.71 222.318C302.882 220.113 303.856 217.07 304.68 214.104C306.628 207.258 308.575 200.108 307.077 193.187C306.75 191.095 305.84 189.142 304.455 187.558C303.779 186.748 302.901 186.138 301.912 185.79C300.924 185.442 299.862 185.37 298.837 185.581C296.44 186.265 294.941 188.623 293.893 190.905C290.758 197.558 289.096 204.827 289.023 212.202C289.023 215.701 289.398 219.276 291.346 222.09Z" fill="#EBEBEB"/>
<path d="M284.678 227.186C287.3 223.992 287.824 219.352 286.626 215.397C285.427 211.442 282.805 208.019 279.734 205.205C276.14 201.933 271.937 199.424 267.374 197.827C265.619 197.089 263.727 196.751 261.83 196.838C259.957 197.066 258.01 198.055 257.186 199.728C256.362 201.402 257.111 205.281 258.459 207.791C260.839 212.176 263.544 216.371 266.55 220.341C269.022 223.535 271.793 226.654 275.464 228.099C279.135 229.544 283.03 229.316 284.978 226.73" fill="#EBEBEB"/>
<path d="M291.195 275.409L291.42 273.812C291.495 272.595 291.645 271.15 291.795 269.4C292.012 267.255 292.337 265.122 292.769 263.011C293.323 260.412 294.1 257.867 295.091 255.405C296.043 252.953 297.329 250.649 298.911 248.559C300.217 246.873 301.849 245.475 303.706 244.452C304.991 243.84 306.352 243.405 307.751 243.159C308.285 243.182 308.818 243.105 309.324 242.931H307.751C306.269 243.03 304.819 243.418 303.481 244.072C301.509 245.014 299.787 246.422 298.462 248.179C296.787 250.287 295.447 252.648 294.492 255.177C293.511 257.668 292.734 260.238 292.169 262.859C291.785 264.998 291.51 267.156 291.345 269.324C291.195 271.226 291.195 272.747 291.12 273.736C291.066 274.294 291.092 274.858 291.195 275.409Z" fill="#E0E0E0"/>
<path d="M291.495 271.986V269.172C291.495 267.271 291.495 264.608 291.57 261.338C291.795 254.721 292.319 247.647 293.368 237.607C294.417 227.567 295.84 217.222 297.263 210.073C297.563 208.501 297.863 207.056 298.162 205.737L298.911 202.467L299.436 200.413C299.511 199.881 299.586 199.652 299.511 199.652L299.286 200.337L298.687 202.391C298.387 203.303 298.162 204.368 297.788 205.661C297.413 206.954 297.114 208.399 296.814 209.997C295.003 218.408 293.652 226.914 292.769 235.477C291.645 245.517 291.196 254.721 291.121 261.338C291.121 264.608 291.196 267.271 291.27 269.172C291.275 269.885 291.325 270.596 291.42 271.302C291.42 271.758 291.42 271.986 291.495 271.986Z" fill="#E0E0E0"/>
<path d="M291.495 254.416C291.592 253.659 291.592 252.892 291.495 252.134C291.42 250.765 291.195 248.636 290.821 246.126C290.378 243.166 289.727 240.243 288.873 237.379C287.948 233.814 286.746 230.33 285.277 226.958C282.786 220.758 279.178 215.084 274.64 210.225C273.874 209.378 273.048 208.59 272.168 207.867L271.119 206.878L270.145 206.27C268.947 205.433 268.347 204.977 268.273 205.053C268.198 205.129 270.894 206.802 274.34 210.529C277.786 214.256 281.682 220.113 284.678 227.262C286.122 230.6 287.348 234.03 288.349 237.531C289.248 240.725 289.922 243.692 290.371 246.202C290.821 248.712 291.121 250.765 291.27 252.21C291.305 252.949 291.38 253.686 291.495 254.416Z" fill="#E0E0E0"/>
<path d="M273.591 282.787L275.314 307.051H305.953L307.676 282.787H273.591Z" fill="#EBEBEB"/>
<path d="M311.347 273.279H270.595V282.817H311.347V273.279Z" fill="#EBEBEB"/>
<path d="M270.595 306.062V308.724H272.543H310.673V306.062H270.595Z" fill="#E0E0E0"/>
<path d="M274.416 313.135L272.543 308.419H309.175L307.002 313.135H274.416Z" fill="#E0E0E0"/>
<path d="M307.077 290.697C307.077 290.697 307.077 290.773 306.927 290.925L306.478 291.534C306.103 292.142 305.504 292.903 304.755 293.892H304.53L300.185 287.731H300.41L296.14 293.892L295.99 294.12L295.841 293.968L290.747 287.731H291.046L290.747 288.111C289.173 290.089 287.6 292.066 286.177 293.968L286.027 294.12L285.877 293.892L281.532 287.731H281.757L276.513 293.892H276.289L274.641 291.001L274.191 290.241C274.151 290.171 274.126 290.093 274.116 290.013L274.266 290.241L274.716 291.001L276.513 293.74H276.289C277.712 292.142 279.435 290.013 281.532 287.503L281.682 287.351L281.832 287.503L286.177 293.74H285.877L290.447 287.959L290.747 287.579V287.427L290.896 287.579L296.065 293.74H295.766L300.111 287.503L300.26 287.351V287.503L304.605 293.74H304.455L306.253 291.458L306.778 290.925L307.077 290.697Z" fill="#F5F5F5"/>
<path d="M308.126 282.635C308.126 282.787 300.41 282.863 290.971 282.863C281.532 282.863 273.816 282.787 273.816 282.635C273.816 282.482 281.532 282.482 290.971 282.482C300.41 282.482 308.126 282.558 308.126 282.635Z" fill="#F5F5F5"/>
<path d="M133.507 30.4925C133.507 30.5686 133.432 30.4925 133.357 30.4925L132.832 30.2644L130.96 29.5038L123.993 26.4613L101.22 16.4213L100.471 16.0409H100.62L78.2967 25.7007L71.5546 28.591L69.6818 29.3516C69.3073 29.5798 69.0825 29.6559 69.0825 29.5798L69.6818 29.2756L71.4797 28.4389L78.2217 25.4725L100.471 15.6606H100.62L101.444 16.0409L124.143 26.1571L131.034 29.3516L132.907 30.1883L133.357 30.4165L133.507 30.4925Z" fill="#E0E0E0"/>
<path d="M169.09 27.2219H22.7871V138.446H169.09V27.2219Z" fill="#E0E0E0"/>
<path d="M164.52 32.394H27.8813V133.875H164.52V32.394Z" fill="#FAFAFA"/>
<path d="M58.0708 76.7375C58.0708 76.7375 58.1457 93.7752 59.0447 98.9474L80.0948 97.9586C80.0948 97.9586 78.222 81.2251 78.9712 76.7375H58.0708Z" fill="#E0E0E0"/>
<path d="M68.4082 79.0955H69.6068C70.0762 79.1333 70.5339 79.2624 70.9552 79.4758C71.4989 79.7574 71.9826 80.1451 72.3786 80.6167C72.8495 81.2192 73.1822 81.9208 73.3524 82.6703C73.5718 83.5584 73.4927 84.4953 73.1277 85.3325C72.9983 85.7811 72.8226 86.2145 72.6033 86.6255C72.3198 87.0495 72.0931 87.5099 71.9291 87.9946C71.4735 88.9544 71.1701 89.9812 71.0301 91.037H66.6104C66.5155 89.9852 66.1822 88.9699 65.6365 88.0707L64.8125 86.8537C64.5877 86.3973 64.2881 86.017 64.0634 85.6367C63.7121 84.7974 63.608 83.8727 63.7637 82.9746C63.913 82.221 64.192 81.5001 64.5877 80.8449C64.9393 80.3395 65.4007 79.9231 65.9362 79.6279C66.3289 79.3804 66.7592 79.2005 67.2096 79.0955L68.1086 78.9434L67.2846 79.0955C66.8297 79.1861 66.3969 79.367 66.0111 79.6279C65.4756 79.9231 65.0142 80.3395 64.6627 80.8449C64.2791 81.4986 64.0246 82.222 63.9135 82.9746C63.7561 83.8226 63.8607 84.6993 64.2132 85.4846L64.9623 86.7016L65.7863 87.9186C66.3431 88.8404 66.6768 89.883 66.7602 90.961H70.8803C71.0199 89.8807 71.3231 88.8287 71.7793 87.8425C71.9584 87.3885 72.1844 86.9551 72.4535 86.5495L73.0528 85.2564C73.3543 84.4868 73.4439 83.6484 73.3119 82.8311C73.18 82.0137 72.8314 81.2482 72.3036 80.6167C71.9076 80.1451 71.424 79.7574 70.8803 79.4758L69.6068 79.0194C69.3084 78.9804 69.0063 78.9804 68.7079 79.0194H68.4082V79.0955Z" fill="white"/>
<path d="M69.457 90.961V90.7328C69.3925 90.4825 69.3424 90.2285 69.3072 89.9722C69.2322 89.2877 69.0824 88.3749 69.0075 87.1579C68.9425 86.8327 68.9173 86.5006 68.9325 86.1692V85.1804C68.9344 84.8135 69.0109 84.4509 69.1573 84.1155C69.328 83.7479 69.6194 83.4521 69.9815 83.2788C70.1704 83.2021 70.3773 83.1828 70.5768 83.2233C70.7764 83.2638 70.96 83.3624 71.1053 83.507C71.1809 83.5881 71.2397 83.6837 71.2783 83.7882C71.3169 83.8927 71.3345 84.004 71.3301 84.1155C71.3246 84.327 71.2735 84.5347 71.1802 84.724L70.6558 85.1043C70.4434 85.214 70.2162 85.2908 69.9815 85.3325L68.7078 85.4846H67.3592L66.6848 85.3325L66.1604 84.9522C66.0165 84.7749 65.9141 84.5669 65.8607 84.3437C65.8531 84.1381 65.8784 83.9326 65.9356 83.7352C66.0257 83.5326 66.1856 83.3703 66.3851 83.2788C66.5872 83.2263 66.8014 83.2534 66.9845 83.3549C67.0808 83.3844 67.1702 83.4333 67.2474 83.4986C67.3246 83.564 67.3881 83.6444 67.4341 83.7352C67.5076 83.8019 67.5658 83.8841 67.6047 83.9761C67.6435 84.0681 67.662 84.1676 67.6588 84.2676C67.7338 84.6479 67.7338 84.9522 67.8087 85.3325V87.3101C67.8836 88.527 67.8836 89.4398 67.9585 90.1243V91.1131V90.8849C67.9644 90.6292 67.9392 90.3738 67.8836 90.1243C67.8836 89.4398 67.8087 88.527 67.7338 87.3101C67.6588 86.0931 67.6588 86.017 67.6588 85.3325C67.6588 84.6479 67.5839 84.6479 67.509 84.2676C67.4989 84.0686 67.4192 83.8798 67.2842 83.7352L66.9096 83.3549H66.3102L65.9356 83.7352C65.8423 83.9232 65.8158 84.1382 65.8607 84.3437C65.9142 84.5442 66.0173 84.7275 66.1604 84.8761C66.3024 85.0375 66.4753 85.168 66.6684 85.2595C66.8616 85.351 67.0711 85.4017 67.2842 85.4085H68.6328L69.9066 85.2564L70.5059 85.1043C70.7134 84.9957 70.893 84.8394 71.0304 84.6479C71.1039 84.5813 71.1622 84.499 71.201 84.407C71.2398 84.315 71.2583 84.2155 71.2552 84.1155C71.2266 83.9214 71.1492 83.738 71.0304 83.5831C70.8851 83.4385 70.7014 83.3399 70.5019 83.2994C70.3023 83.2589 70.0955 83.2782 69.9066 83.3549C69.5697 83.5011 69.3013 83.7735 69.1573 84.1155C69.0109 84.4509 68.9344 84.8135 68.9325 85.1804C68.8947 85.5088 68.8947 85.8407 68.9325 86.1692V87.1579C69.0824 88.2989 69.1573 89.2877 69.3072 89.9722C69.457 90.6568 69.3821 90.5807 69.3821 90.7328V90.8849L69.457 90.961Z" fill="white"/>
<path d="M66.6855 91.1133C66.7434 91.3365 66.7686 91.5672 66.7605 91.7978C66.7605 92.3303 66.8354 92.9387 66.8354 93.6994L68.2589 95.3727H69.7574C70.0086 94.9996 70.2839 94.6439 70.5816 94.3078L70.9562 93.8515C70.9562 92.9388 70.8813 92.026 70.8813 91.1133V91.2654H67.8094L70.8813 91.1133H71.0311C71.0311 91.95 71.0311 92.9388 71.106 93.8515H71.0311L70.6565 94.3839L69.8323 95.3727H68.0342L66.6855 93.6994V91.1133Z" fill="white"/>
<path d="M70.9558 93.4709H70.806L70.3564 93.2427C69.8665 93.1122 69.3641 93.0357 68.8579 93.0145C68.367 93.0662 67.8868 93.1945 67.4344 93.3948L66.9849 93.547L67.3595 93.3188C67.8415 93.1293 68.3448 93.0015 68.8579 92.9385C69.3719 92.9423 69.8805 93.0456 70.3564 93.2427L70.806 93.3948L70.9558 93.4709Z" fill="white"/>
<path d="M70.9558 92.8625H70.806L70.3564 92.7103C69.8844 92.5052 69.3684 92.4267 68.8579 92.4821C68.3673 92.4772 67.8815 92.581 67.4344 92.7864L66.9849 92.9385L67.3595 92.7103C67.8354 92.5132 68.344 92.4099 68.8579 92.4061C69.3669 92.3892 69.8747 92.4665 70.3564 92.6343L70.806 92.8625H70.9558Z" fill="white"/>
<path d="M70.8809 92.1779H70.731L70.2815 91.9498C69.8186 91.812 69.3401 91.7353 68.8579 91.7216L67.3595 92.1019L66.9849 92.254L67.3595 92.0258L68.8579 91.6455C69.3719 91.6494 69.8805 91.7526 70.3564 91.9498L70.731 92.1019L70.8809 92.1779Z" fill="white"/>
<path d="M34.6232 48.8994C34.6232 48.8994 34.773 65.9371 35.597 71.1092L56.6472 70.1204C56.6472 70.1204 54.7744 53.311 55.5235 48.8994H34.6232Z" fill="#EBEBEB"/>
<path d="M52.3026 56.049C52.3026 56.1251 49.1563 56.4293 45.2609 56.6575C41.3655 56.8857 38.2192 56.9618 38.2192 56.8857C38.2192 56.8096 41.3655 56.5054 45.2609 56.2772C49.1563 56.049 52.3026 55.8969 52.3026 56.049Z" fill="white"/>
<path d="M52.3026 59.624C52.3775 59.7761 49.1563 60.0043 45.2609 60.2325C41.3655 60.4606 38.2192 60.6128 38.2192 60.4606C38.2192 60.3085 41.3655 60.0803 45.2609 59.8522C49.1563 59.624 52.3026 59.5479 52.3026 59.624Z" fill="white"/>
<path d="M48.7815 63.1988C47.4466 63.4562 46.0942 63.6088 44.7363 63.6552C42.4889 63.7312 40.691 63.8073 40.691 63.6552C42.0259 63.3978 43.3783 63.2452 44.7363 63.1988C46.9087 63.0467 48.7815 63.0467 48.7815 63.1988Z" fill="white"/>
<path d="M33.5747 98.9475C33.5747 98.9475 33.7245 115.985 34.6235 121.233L55.6737 120.169C55.6737 120.169 53.8009 103.435 54.4751 98.9475H33.5747Z" fill="#EBEBEB"/>
<path d="M51.328 106.173C51.328 106.249 48.1817 106.553 44.2863 106.782C40.3909 107.01 37.2446 107.086 37.2446 107.01C37.2446 106.934 40.3909 106.63 44.2863 106.325C48.1817 106.021 51.328 106.021 51.328 106.173Z" fill="white"/>
<path d="M51.328 109.748C51.328 109.9 48.1817 110.129 44.2863 110.357C40.3909 110.585 37.2446 110.737 37.2446 110.585C37.2446 110.433 40.3909 110.205 44.2863 109.976C48.1817 109.748 51.328 109.596 51.328 109.748Z" fill="white"/>
<path d="M47.7328 113.323C46.4238 113.584 45.096 113.737 43.7625 113.779C41.5152 113.856 39.7173 113.932 39.7173 113.779C41.0521 113.522 42.4046 113.369 43.7625 113.323C45.935 113.171 47.7328 113.171 47.7328 113.323Z" fill="white"/>
<path d="M91.1063 53.387L93.2039 102.522L153.658 103.283L150.886 54.0715L91.1063 53.387Z" fill="#EBEBEB"/>
<path d="M150.436 53.0066H90.4321V99.0159H150.436V53.0066Z" fill="#F5F5F5"/>
<path d="M150.437 99.0234V98.1868C150.366 97.3775 150.341 96.5649 150.362 95.7528V86.3973C150.287 78.4109 150.287 66.9257 150.287 53.0065L150.437 53.2347H90.4324L90.5822 53.0065V99.0234L90.4324 98.8713H133.806L90.4324 99.0234H90.2076V52.6262H150.586V52.7783C150.586 66.6975 150.512 78.2588 150.512 86.3212C150.512 90.2764 150.437 93.3949 150.437 95.6007V98.7953V99.0234Z" fill="#E0E0E0"/>
<path d="M122.046 62.8186H97.6992V93.9047H122.046V62.8186Z" fill="#F5F5F5"/>
<path d="M121.97 93.8512V91.5693C121.895 90.0481 121.895 87.9184 121.895 85.1802C121.895 79.7038 121.82 71.9456 121.82 62.7422L121.97 62.9704H97.6238C97.6238 63.0465 98.0733 62.5901 97.8486 62.7422V93.699L97.6238 93.5469H97.474V62.8943L97.6238 62.7422H122.195V62.8943C122.12 72.1738 122.12 79.932 122.045 85.4845V91.7975C122.045 92.4821 121.97 93.0906 121.97 93.4709V94.0033V93.8512Z" fill="#E0E0E0"/>
<path d="M145.192 55.6687H98.5972V60.1487H145.192V55.6687Z" fill="#F5F5F5"/>
<path d="M145.193 60.1564V58.9394C145.193 58.1788 145.118 57.114 145.118 55.6688H145.193L98.5978 55.8209C98.9723 55.3645 98.6727 55.6688 98.8225 55.5927V59.9282L98.5978 59.7H131.784L98.5978 59.8521H98.373V55.2885L98.5978 55.0603L145.193 55.2124H145.268V58.5591C145.268 58.9394 145.193 59.1676 145.193 59.3958V60.1564Z" fill="#E0E0E0"/>
<path d="M145.193 62.8186H124.967V81.5524H145.193V62.8186Z" fill="#F5F5F5"/>
<path d="M145.193 81.5294V80.1603C145.118 79.2476 145.118 77.9545 145.118 76.2812C145.118 73.0105 145.043 68.3708 145.043 62.7423L145.193 62.9705H124.967L125.191 62.7423V72.4781C125.116 75.5966 125.116 78.6391 125.116 81.3773L124.967 81.1491L139.574 81.3012H124.742V62.8944C124.592 63.1226 124.967 62.6662 124.967 62.7423H145.343V62.8944C145.343 68.5229 145.343 73.2387 145.268 76.5854V80.3885C145.268 80.7688 145.193 81.073 145.193 81.3012V81.5294Z" fill="#E0E0E0"/>
<path d="M145.193 84.4197H124.967V93.836H145.193V84.4197Z" fill="#F5F5F5"/>
<path d="M145.193 93.8514V91.2653C145.193 89.592 145.193 87.3101 145.118 84.4198L145.267 84.5719H125.041L125.266 84.3438V89.0595C125.266 90.6568 125.191 92.178 125.191 93.6232L125.041 93.395L139.499 93.5471H139.649L125.041 93.6992H124.817V84.5719C124.742 84.648 125.191 84.1916 125.041 84.4198H145.342V84.5719C145.342 87.4622 145.267 89.8201 145.267 91.4935V93.395C145.232 93.5452 145.207 93.6977 145.193 93.8514Z" fill="#E0E0E0"/>
<path d="M121.371 62.8186C113.88 73.3911 105.19 83.279 97.624 93.8515L121.371 62.8186Z" fill="white"/>
<path d="M97.624 93.8515L97.8488 93.5472L98.448 92.5585L100.92 89.1357C103.018 86.3214 106.014 82.4423 109.385 78.1829L117.85 67.3823L120.397 64.0356L121.146 63.1228L121.371 62.8186L121.146 63.1989L120.547 64.1116L118.075 67.5344C116.052 70.3486 113.056 74.2277 109.685 78.4872C106.314 82.7466 103.317 86.5496 101.145 89.3639L98.5979 92.6345C98.3731 93.0148 98.0735 93.3191 97.9237 93.5472C97.7738 93.7754 97.6989 93.8515 97.624 93.8515Z" fill="#E0E0E0"/>
<path d="M121.97 93.8513C121.895 93.9273 116.352 87.0058 109.685 78.4109C103.017 69.816 97.5489 62.8184 97.6238 62.7423C97.6987 62.6663 103.242 69.5878 109.984 78.1827C116.726 86.7776 122.045 93.7752 121.97 93.8513Z" fill="#E0E0E0"/>
<path d="M93.204 62.8186C93.204 63.5858 92.9799 64.3358 92.5601 64.9737C92.1403 65.6116 91.5436 66.1088 90.8455 66.4024C90.1474 66.696 89.3793 66.7728 88.6381 66.6231C87.897 66.4735 87.2163 66.104 86.682 65.5615C86.1477 65.019 85.7838 64.3278 85.6364 63.5753C85.489 62.8229 85.5646 62.0429 85.8538 61.3341C86.143 60.6253 86.6327 60.0194 87.2609 59.5932C87.8892 59.167 88.6279 58.9395 89.3835 58.9395C90.3968 58.9395 91.3685 59.3481 92.085 60.0756C92.8015 60.8031 93.204 61.7898 93.204 62.8186Z" fill="#E0E0E0"/>
<path d="M155.455 53.4631C155.455 54.2303 155.231 54.9803 154.812 55.6182C154.392 56.2561 153.795 56.7533 153.097 57.0469C152.399 57.3405 151.631 57.4174 150.89 57.2677C150.149 57.118 149.468 56.7486 148.933 56.206C148.399 55.6635 148.035 54.9723 147.888 54.2199C147.74 53.4674 147.816 52.6874 148.105 51.9786C148.394 51.2698 148.884 50.664 149.512 50.2377C150.141 49.8115 150.879 49.584 151.635 49.584C152.648 49.584 153.62 49.9927 154.336 50.7201C155.053 51.4476 155.455 52.4343 155.455 53.4631Z" fill="#E0E0E0"/>
<path d="M304.305 80.3887H260.482V144.934H304.305V80.3887Z" fill="#E0E0E0"/>
<path d="M302.058 80.3887H258.234V144.934H302.058V80.3887Z" fill="#F5F5F5"/>
<path d="M296.664 87.3862H263.703V137.952H296.664V87.3862Z" fill="white"/>
<path d="M296.664 137.891V134.164C296.664 131.73 296.589 128.231 296.589 123.743C296.589 114.844 296.589 102.218 296.514 87.3863H263.852C263.777 106.402 263.777 124.048 263.777 137.891H263.628C263.628 124.048 263.628 106.402 263.553 87.3863V87.2341H296.739V123.819C296.739 128.307 296.664 131.806 296.664 134.24V137.891Z" fill="#E0E0E0"/>
<path d="M302.208 80.3887C302.283 80.3887 301.984 80.845 301.459 81.5296L299.361 84.1917C298.537 85.1805 297.788 86.0933 297.188 86.7018L296.289 87.7666C296.214 87.6906 296.589 87.3102 297.113 86.6257L299.211 84.0396L301.309 81.4535L302.208 80.3887Z" fill="#E0E0E0"/>
<path d="M296.814 137.739C298.462 140.384 300.397 142.833 302.583 145.04L296.814 137.739Z" fill="white"/>
<path d="M302.583 145.04C302.583 145.116 302.134 144.736 301.609 144.128C300.816 143.355 300.09 142.515 299.436 141.618C298.738 140.768 298.088 139.88 297.488 138.955C297.213 138.581 296.987 138.172 296.814 137.739C297.134 138.083 297.411 138.466 297.638 138.879C298.088 139.564 298.837 140.477 299.586 141.466L301.684 144.052L302.583 145.04Z" fill="#E0E0E0"/>
<path d="M258.234 144.888L264.003 137.663L258.234 144.888Z" fill="white"/>
<path d="M264.003 137.663C263.158 138.939 262.232 140.158 261.231 141.314C260.311 142.571 259.31 143.765 258.234 144.888C259.089 143.595 260.015 142.35 261.007 141.161C261.938 139.938 262.939 138.769 264.003 137.663Z" fill="#E0E0E0"/>
<path d="M258.234 80.3887C259.259 81.4147 260.187 82.535 261.007 83.7354C261.97 84.8569 262.846 86.052 263.629 87.3102L260.857 83.8875C259.358 81.986 258.234 80.3887 258.234 80.3887Z" fill="#E0E0E0"/>
<path d="M286.401 97.6543H275.389V129.471H286.401V97.6543Z" fill="#E0E0E0"/>
<path d="M294.185 11.8984L287.891 11.9319L288.055 43.6489L294.348 43.6154L294.185 11.8984Z" fill="#E0E0E0"/>
<path d="M249.837 11.9063L233.582 11.9927L233.672 29.5017L249.927 29.4153L249.837 11.9063Z" fill="#EBEBEB"/>
<path d="M266.017 11.8965L249.761 11.9829L249.852 29.4919L266.107 29.4055L266.017 11.8965Z" fill="#F5F5F5"/>
<path d="M233.588 16.8017C244.376 16.8777 255.163 16.8777 266.025 16.6495C266.065 16.6495 266.103 16.6335 266.131 16.605C266.159 16.5765 266.175 16.5378 266.175 16.4974C266.175 16.4571 266.159 16.4184 266.131 16.3899C266.103 16.3613 266.065 16.3453 266.025 16.3453C255.163 16.2692 244.376 16.2692 233.588 16.4974C233.549 16.4974 233.51 16.5134 233.482 16.542C233.454 16.5705 233.438 16.6092 233.438 16.6495C233.438 16.6899 233.454 16.7286 233.482 16.7571C233.51 16.7856 233.549 16.8017 233.588 16.8017Z" fill="#E0E0E0"/>
<path d="M252.923 29.1556L223.408 29.3125L223.482 43.5814L252.997 43.4244L252.923 29.1556Z" fill="#EBEBEB"/>
<path d="M282.361 28.9991L252.847 29.156L252.92 43.4249L282.435 43.2679L282.361 28.9991Z" fill="#F5F5F5"/>
<path d="M223.4 33.2307C243.027 33.4589 262.729 33.2307 282.356 32.9265C282.396 32.9265 282.434 32.9104 282.462 32.8819C282.49 32.8534 282.506 32.8147 282.506 32.7744C282.506 32.734 282.49 32.6953 282.462 32.6668C282.434 32.6383 282.396 32.6222 282.356 32.6222C262.729 32.4701 243.027 32.4701 223.4 32.9265C223.251 32.9265 223.251 33.2307 223.4 33.2307Z" fill="#E0E0E0"/>
<path d="M326.854 43.5752H212.389V48.6865H326.854V43.5752Z" fill="#E0E0E0"/>
<path d="M235.761 46.009H231.116V63.4498H235.761V46.009Z" fill="#E0E0E0"/>
<path d="M305.13 46.009H300.485V63.4498H305.13V46.009Z" fill="#E0E0E0"/>
<path d="M300.416 -1.12358e-05L294.123 0.0334473L294.348 43.6538L300.641 43.6204L300.416 -1.12358e-05Z" fill="#EBEBEB"/>
<path d="M310.121 8.16258L300.382 8.21436L300.565 43.567L310.303 43.5153L310.121 8.16258Z" fill="#F5F5F5"/>
<path d="M310.073 14.9C306.83 15.1028 303.578 15.1028 300.334 14.9C303.578 14.6971 306.83 14.6971 310.073 14.9Z" fill="#E0E0E0"/>
<path d="M310.073 13.455C306.83 13.6579 303.578 13.6579 300.334 13.455C300.334 13.3029 302.507 13.2268 305.204 13.2268C307.901 13.2268 310.073 13.3029 310.073 13.455Z" fill="#E0E0E0"/>
<path d="M310.073 38.0989C310.073 38.2511 307.901 38.3271 305.204 38.3271C302.507 38.3271 300.334 38.2511 300.334 38.0989C303.578 37.8961 306.83 37.8961 310.073 38.0989Z" fill="#E0E0E0"/>
<path d="M310.073 36.6536C306.83 36.8565 303.578 36.8565 300.334 36.6536C303.578 36.4507 306.83 36.4507 310.073 36.6536Z" fill="#E0E0E0"/>
<path d="M305.353 33.3828C305.279 33.3828 305.204 29.808 305.204 25.4725C305.204 21.137 305.279 17.4861 305.353 17.4861C305.428 17.4861 305.503 21.0609 305.503 25.4725C305.503 29.884 305.428 33.3828 305.353 33.3828Z" fill="#E0E0E0"/>
<path d="M320.861 16.8015H310.224V43.4837H320.861V16.8015Z" fill="#EBEBEB"/>
<path d="M315.767 36.5773C315.455 36.5775 315.147 36.514 314.86 36.3908C314.573 36.2676 314.314 36.0871 314.097 35.86C313.881 35.6329 313.711 35.364 313.599 35.069C313.487 34.7741 313.434 34.4593 313.444 34.1433C313.416 33.7929 313.477 33.441 313.621 33.1214C313.766 32.8017 313.988 32.5251 314.268 32.3179L314.493 32.6982C314.271 32.8628 314.093 33.0813 313.975 33.3337C313.857 33.5861 313.803 33.8645 313.819 34.1433C313.819 34.6678 314.024 35.1708 314.389 35.5417C314.755 35.9126 315.25 36.1209 315.767 36.1209C316.283 36.1209 316.779 35.9126 317.144 35.5417C317.509 35.1708 317.715 34.6678 317.715 34.1433C317.73 33.8645 317.676 33.5861 317.559 33.3337C317.441 33.0813 317.263 32.8628 317.04 32.6982L317.265 32.3179C317.559 32.5162 317.796 32.789 317.954 33.1092C318.112 33.4294 318.184 33.7859 318.164 34.1433C318.175 34.4658 318.12 34.7871 318.003 35.0871C317.886 35.3872 317.71 35.6598 317.485 35.888C317.26 36.1161 316.992 36.295 316.696 36.4136C316.401 36.5322 316.084 36.5879 315.767 36.5773Z" fill="#FAFAFA"/>
<path d="M317.565 31.7095L317.19 31.4814C317.579 30.9836 317.79 30.367 317.79 29.732C317.79 28.7432 317.415 28.3629 316.891 28.3629C316.366 28.3629 316.516 31.4814 314.718 31.4814C312.92 31.4814 313.444 30.8729 313.444 29.732C313.422 29.1406 313.579 28.5565 313.894 28.0586L314.193 28.2868C313.946 28.7269 313.817 29.2252 313.819 29.732C313.819 30.6447 314.193 31.025 314.643 31.025C315.092 31.025 315.092 27.9065 316.891 27.9065C318.689 27.9065 318.164 28.591 318.164 29.808C318.16 30.489 317.951 31.1524 317.565 31.7095Z" fill="#FAFAFA"/>
<path d="M317.565 27.3741L317.19 27.1459C317.579 26.6481 317.79 26.0316 317.79 25.3965C317.79 24.4077 317.415 24.0274 316.891 24.0274C316.366 24.0274 316.516 27.1459 314.718 27.1459C312.92 27.1459 313.444 26.5374 313.444 25.3965C313.422 24.8052 313.579 24.2211 313.894 23.7232L314.193 23.9513C313.946 24.3914 313.817 24.8898 313.819 25.3965C313.819 26.3092 314.193 26.6896 314.643 26.6896C315.092 26.6896 315.092 23.571 316.891 23.571C318.689 23.571 318.164 24.2556 318.164 25.4726C318.16 26.1536 317.951 26.8169 317.565 27.3741Z" fill="#FAFAFA"/>
<path d="M297.114 9.27153C298.107 9.27153 298.912 8.45425 298.912 7.44607C298.912 6.43789 298.107 5.62061 297.114 5.62061C296.121 5.62061 295.316 6.43789 295.316 7.44607C295.316 8.45425 296.121 9.27153 297.114 9.27153Z" fill="#E0E0E0"/>
<path d="M297.638 12.4661H296.514V38.4181H297.638V12.4661Z" fill="#E0E0E0"/>
<path d="M339.962 314.352C339.962 314.504 267.598 314.58 178.378 314.58C89.1581 314.58 16.7935 314.504 16.7935 314.352C16.7935 314.2 89.0832 314.2 178.378 314.2C267.673 314.2 339.962 314.276 339.962 314.352Z" fill="#263238"/>
<path d="M104.291 52.8545C92.2302 72.0979 93.0542 98.7193 106.164 117.126C114.928 129.448 128.038 137.663 138.526 148.539C149.013 159.416 156.879 175.389 151.336 189.46C145.792 203.531 129.312 209.692 117.026 218.744C103.467 228.76 94.2595 243.724 91.3398 260.49C88.4201 277.255 92.0152 294.517 101.369 308.648H229.094C229.094 308.648 251.492 265.293 222.651 232.206C193.81 199.12 178.304 198.587 179.427 176.91C180.551 155.233 195.459 148.159 203.998 140.02C212.538 131.882 254.189 112.943 229.618 52.8545H104.291Z" fill="#FAFAFA"/>
<path d="M104.291 52.8545H229.693C231.581 57.4117 233.183 62.0862 234.487 66.8497C235.859 71.8481 236.762 76.967 237.184 82.138C237.617 87.501 237.339 92.8986 236.36 98.1869C235.314 103.701 233.364 108.997 230.592 113.855C229.22 116.363 227.614 118.732 225.798 120.929C224.008 123.202 222.055 125.338 219.954 127.318C217.827 129.385 215.575 131.315 213.212 133.099L206.171 138.423C204.972 139.336 203.848 140.401 202.725 141.39L199.279 144.356C196.882 146.257 194.484 148.159 192.237 150.289C187.742 154.396 183.847 159.492 181.749 165.501C180.729 168.528 180.075 171.669 179.802 174.856C179.727 175.693 179.577 176.454 179.577 177.29C179.577 178.127 179.502 178.888 179.577 179.648C179.575 181.282 179.725 182.912 180.027 184.516C180.654 187.727 181.958 190.763 183.847 193.415C185.79 196.074 188.027 198.499 190.514 200.641C195.308 205.129 200.477 209.464 205.422 214.104C210.366 218.744 215.16 223.612 219.805 228.708C222.144 231.246 224.344 233.912 226.397 236.694C228.449 239.547 230.254 242.575 231.79 245.745C234.82 252.226 236.672 259.209 237.259 266.358C237.869 273.58 237.466 280.853 236.06 287.959C235.321 291.531 234.396 295.06 233.289 298.532C232.194 302.052 230.842 305.484 229.243 308.8H101.219C95.2505 299.651 91.5967 289.149 90.582 278.223C89.4903 267.692 91.0097 257.05 95.0018 247.266C98.7036 237.924 104.47 229.571 111.857 222.851C115.406 219.618 119.271 216.764 123.393 214.332C127.364 211.746 131.409 209.464 135.154 206.954C138.942 204.51 142.437 201.625 145.567 198.359C148.54 195.131 150.744 191.254 152.01 187.026C153.115 182.911 153.294 178.595 152.534 174.4C151.767 170.348 150.43 166.429 148.564 162.763C146.768 159.244 144.609 155.929 142.121 152.875C139.718 149.93 137.115 147.16 134.33 144.584C128.937 139.564 123.393 135.153 118.449 130.589C115.977 128.383 113.58 126.025 111.407 123.743C109.29 121.454 107.338 119.014 105.564 116.442C102.394 111.721 99.9443 106.541 98.2979 101.077C96.8288 96.3448 95.9972 91.4323 95.8258 86.4735C95.7259 85.3609 95.7009 84.2428 95.7509 83.1268C95.6999 82.0868 95.725 81.0445 95.8258 80.0083L96.0505 76.9658C96.2004 75.977 96.3502 75.0643 96.4251 74.1516C97.2693 68.546 98.9623 63.1067 101.444 58.0266C101.78 57.2335 102.181 56.4702 102.643 55.7448L103.542 54.1475L104.291 52.8545L103.542 54.1475L102.643 55.7448C102.223 56.4819 101.848 57.2438 101.519 58.0266C99.0796 63.1177 97.4127 68.5542 96.5749 74.1516C96.4251 75.0643 96.2753 76.0531 96.2004 76.9658L95.9756 80.0083C95.8748 81.0445 95.8498 82.0868 95.9007 83.1268C95.8507 84.2428 95.8758 85.3609 95.9756 86.4735C96.3955 97.156 99.799 107.497 105.789 116.289C107.512 118.879 109.442 121.321 111.557 123.591C113.73 125.873 116.127 128.155 118.599 130.437C123.543 134.924 129.087 139.336 134.555 144.432C137.358 146.989 139.962 149.76 142.346 152.723C144.833 155.777 146.993 159.091 148.788 162.611C150.72 166.274 152.06 170.229 152.759 174.324C153.585 178.561 153.431 182.935 152.309 187.102C151.034 191.366 148.804 195.271 145.792 198.511C142.795 201.934 139.125 204.596 135.379 207.182C131.634 209.768 127.513 212.05 123.543 214.56C119.474 217.037 115.637 219.889 112.082 223.079C104.759 229.81 99.0239 238.129 95.3014 247.419C91.3854 257.143 89.8681 267.692 90.8816 278.147C91.956 289.012 95.6059 299.451 101.519 308.572H228.869C230.48 305.288 231.832 301.88 232.914 298.38C234.032 294.942 234.933 291.437 235.611 287.883C237.078 280.811 237.507 273.557 236.884 266.358C236.297 259.282 234.444 252.374 231.416 245.973C229.951 242.78 228.169 239.748 226.097 236.922C224.067 234.122 221.866 231.455 219.505 228.936C214.86 223.84 210.066 218.972 205.122 214.408C200.178 209.844 195.084 205.433 190.215 200.945C187.763 198.71 185.531 196.239 183.547 193.567C181.604 190.909 180.273 187.842 179.652 184.592C179.354 182.987 179.204 181.358 179.203 179.724C179.128 178.888 179.203 178.051 179.203 177.214L179.427 174.856C179.674 171.633 180.354 168.46 181.45 165.425C183.547 159.34 187.443 154.168 192.012 149.984C194.26 147.855 196.657 145.953 199.054 144.052L202.5 141.161C203.595 140.11 204.745 139.12 205.946 138.195L213.063 132.795C215.385 130.969 217.632 129.068 219.73 127.09C221.792 125.098 223.742 122.99 225.573 120.777C227.306 118.517 228.907 116.155 230.367 113.703C233.083 108.88 235.006 103.639 236.06 98.1869C237.04 92.8986 237.317 87.501 236.884 82.138C236.456 76.9928 235.553 71.8998 234.188 66.9258C232.908 62.1639 231.332 57.4894 229.468 52.9306H104.291V52.8545Z" fill="#263238"/>
<path d="M224.524 88.0707C243.327 91.2652 213.662 125.036 196.882 138.423C187.143 146.105 176.73 154.472 172.086 166.109C166.842 179.268 170.737 194.1 168.19 207.41C167.816 209.616 164.595 209.236 164.595 207.03C164.745 198.283 164.52 189.612 163.096 181.017C161.074 168.847 156.504 156.83 148.114 147.931C141.222 140.629 132.233 135.837 124.966 128.991C114.254 119.104 103.317 106.325 102.268 91.6455C102.268 91.6455 122.719 74.9121 134.106 77.0418C147.365 79.4758 160.475 100.316 181.075 97.8825C195.458 96.2092 202.725 84.4197 224.524 88.0707Z" fill="#4B0082"/>
<path d="M226.172 269.096C225.722 264.304 224.449 258.904 220.254 256.622C217.707 255.253 214.636 255.405 211.864 256.166C209.092 256.926 206.545 258.219 203.773 259.056C198.309 260.632 192.498 260.446 187.143 258.524C182.049 256.622 177.704 253.123 172.985 250.461C168.265 247.799 162.647 245.745 157.403 247.038C148.339 249.32 143.544 260.501 134.555 263.163C130.585 264.38 126.315 263.696 122.269 262.707C118.224 261.718 114.104 260.577 109.909 260.729C105.714 260.881 103.242 262.022 100.995 264.304H100.92C100.538 264.659 100.209 265.069 99.9458 265.521C97.0992 269.248 96.6497 274.344 97.5486 278.984C98.4476 283.624 100.845 288.872 103.392 293.436C105.939 297.999 109.834 304.236 114.778 307.811C120.921 312.223 128.637 309.18 136.128 309.789C153.583 311.158 172.385 312.147 189.84 310.777C199.129 310.017 207.744 311.006 215.085 305.301C220.254 301.27 223.625 295.109 225.198 288.72C226.771 282.331 226.846 275.637 226.172 269.096Z" fill="#4B0082"/>
<g opacity="0.24">
<path opacity="0.24" d="M193.211 259.969C192.162 261.49 191.788 263.544 192.761 265.065C193.735 266.586 194.934 268.031 195.383 269.857C195.833 271.682 194.335 275.409 193.136 277.995C190.835 282.62 189.973 287.846 190.664 292.979C191.355 298.139 193.986 302.828 198.005 306.062C199.728 307.507 202.051 308.572 204.223 307.887C206.395 307.203 207.519 305.149 207.894 303.019C208.268 300.89 207.969 298.76 207.744 296.63C206.532 286.76 206.784 276.761 208.493 266.966C208.718 265.293 209.017 263.391 207.969 262.098C207.275 261.322 206.357 260.789 205.347 260.577C201.451 259.284 197.181 260.729 193.211 259.969Z" fill="black"/>
</g>
<path d="M92.0051 314.58C92.0051 314.58 91.7055 308.648 99.3465 305.301H233.588C233.588 305.301 240.63 308.876 241.454 314.428L92.0051 314.58Z" fill="#FFBF00"/>
<path d="M230.742 53.6152H230.517L104.291 52.7785L103.167 52.0179C102.36 51.3968 101.767 50.5321 101.473 49.5477C101.18 48.5633 101.201 47.5099 101.534 46.5385C101.867 45.5671 102.494 44.7277 103.326 44.1406C104.157 43.5536 105.151 43.2491 106.163 43.2709L228.719 44.3357C233.738 44.4118 235.311 51.4094 230.742 53.6152Z" fill="#FFBF00"/>
<g opacity="0.24">
<path opacity="0.24" d="M210.515 102.522C210.815 102.979 209.841 104.044 208.043 105.717C206.245 107.39 203.548 109.596 200.177 112.334C196.177 115.679 191.946 118.729 187.517 121.462C184.723 123.075 181.79 124.424 178.753 125.493C177.109 126.074 175.433 126.557 173.734 126.938C171.959 127.325 170.154 127.554 168.34 127.622C164.656 127.855 160.963 127.338 157.478 126.101C154.372 125.009 151.424 123.5 148.713 121.614C146.166 119.864 143.994 118.191 141.971 116.594C139.948 114.996 138.076 113.475 136.428 112.03C129.76 106.173 126.314 101.914 126.989 101.077C127.663 100.241 132.382 102.903 139.649 107.466L145.642 111.193L152.459 115.377C154.766 116.784 157.231 117.907 159.8 118.723C162.439 119.56 165.207 119.895 167.965 119.712C173.734 119.408 179.277 117.354 184.146 114.996C189.016 112.638 193.36 109.824 197.106 107.695C200.098 105.892 203.23 104.341 206.47 103.055C208.867 102.218 210.29 102.066 210.515 102.522Z" fill="black"/>
</g>
<path d="M164.744 223.307C165.086 223.223 165.443 223.222 165.786 223.303C166.128 223.385 166.447 223.547 166.717 223.776C166.986 224.005 167.199 224.296 167.338 224.624C167.477 224.952 167.538 225.309 167.517 225.665C167.465 226.051 167.314 226.417 167.078 226.725C166.843 227.032 166.531 227.271 166.174 227.417C165.818 227.562 165.43 227.609 165.05 227.553C164.67 227.497 164.312 227.34 164.011 227.097C163.711 226.854 163.479 226.535 163.339 226.172C163.2 225.809 163.157 225.415 163.217 225.03C163.276 224.645 163.435 224.282 163.677 223.98C163.919 223.677 164.235 223.445 164.595 223.307" fill="#4B0082"/>
<path d="M119.573 123.743L119.123 123.287L117.85 121.918C117.4 121.309 116.726 120.625 115.977 119.712L113.58 116.67C112.831 115.529 111.857 114.312 110.958 112.867L109.609 110.661C109.334 110.299 109.084 109.917 108.86 109.52L108.186 108.303C106.227 104.686 104.669 100.86 103.541 96.8939C102.445 92.9314 101.866 88.8398 101.818 84.7241C101.818 83.7353 101.818 82.8226 101.893 81.9098V80.6168C101.98 80.191 102.03 79.7584 102.043 79.3238C102.102 78.5077 102.202 77.6953 102.343 76.8898C102.493 76.1292 102.568 75.3686 102.717 74.684C102.867 73.9995 103.317 72.0219 103.541 70.9571L103.991 69.3598C104.141 68.9034 104.216 68.5231 104.365 68.1428C104.515 67.7625 104.815 66.8498 104.965 66.3934L105.19 65.7849L105.04 66.3934L104.515 68.1428C104.425 68.5834 104.3 69.0159 104.141 69.4358C103.991 69.8922 103.916 70.4246 103.766 70.9571C103.452 72.2107 103.202 73.4801 103.017 74.7601C102.85 75.4873 102.725 76.2238 102.643 76.9659C102.493 77.7265 102.493 78.5632 102.343 79.3998C102.193 80.2365 102.268 80.2365 102.268 80.6168C102.206 81.0703 102.181 81.5282 102.193 81.9859C102.193 82.8226 102.118 83.7353 102.118 84.7241C102.235 88.8142 102.839 92.8749 103.916 96.8178C105.019 100.732 106.552 104.508 108.486 108.075L109.16 109.292L109.834 110.509C110.337 111.209 110.788 111.946 111.182 112.715L113.804 116.518L116.127 119.56L117.999 121.842L119.198 123.211L119.573 123.743Z" fill="#263238"/>
<path d="M112.457 236.694L112.606 236.466L113.056 235.781C113.27 235.378 113.521 234.996 113.805 234.64L114.254 233.88L114.854 233.119L116.352 231.294C116.876 230.609 117.551 230.001 118.225 229.24C119.842 227.67 121.569 226.221 123.394 224.905C127.364 221.786 132.533 218.744 138.076 215.245C140.989 213.414 143.791 211.407 146.466 209.236C149.341 206.885 151.887 204.147 154.033 201.098C157.903 195.017 160.006 187.952 160.1 180.713C160.234 174.802 159.268 168.919 157.254 163.371C155.936 159.624 154.281 156.009 152.31 152.571L150.662 149.756L150.212 149.072L150.062 148.768L150.212 149.072L150.736 149.756L152.459 152.495C154.491 155.923 156.196 159.539 157.553 163.295C159.566 168.872 160.556 174.775 160.475 180.713C160.459 182.418 160.334 184.121 160.1 185.809C159.834 187.581 159.458 189.334 158.977 191.058C158.005 194.72 156.435 198.191 154.332 201.326C152.161 204.4 149.59 207.164 146.691 209.54C143.977 211.695 141.151 213.701 138.226 215.549C132.683 219.048 127.514 222.09 123.543 225.057C121.596 226.578 119.873 228.023 118.375 229.392L116.502 231.37L115.004 233.195L114.329 233.956L113.88 234.64L113.131 235.781L112.606 236.466L112.457 236.694Z" fill="#263238"/>
<path d="M105.49 250.157L105.34 250.537L104.815 251.45C104.51 251.965 104.235 252.499 103.991 253.047C103.692 253.656 103.317 254.34 103.018 255.101C102.718 255.861 102.643 255.937 102.418 256.394L101.969 257.763C101.589 258.758 101.263 259.773 100.995 260.805C100.367 263.176 99.9162 265.591 99.6465 268.031C99.4592 270.487 99.4592 272.953 99.6465 275.409C99.7964 276.55 99.8713 277.615 100.096 278.604L100.321 280.049C100.396 280.505 100.545 280.961 100.62 281.342C100.766 282.116 100.967 282.878 101.22 283.624C101.37 284.232 101.594 284.841 101.744 285.297C101.894 285.753 101.969 286.058 102.044 286.286C102.114 286.403 102.165 286.532 102.194 286.666L102.044 286.362C101.867 286.019 101.717 285.663 101.594 285.297C101.358 284.753 101.158 284.194 100.995 283.624C100.77 283.015 100.545 282.255 100.321 281.418C100.096 280.581 100.096 280.581 100.021 280.125C99.9571 279.636 99.8569 279.153 99.7214 278.68C99.5716 277.691 99.4218 276.55 99.272 275.409C99.0846 272.953 99.0846 270.487 99.272 268.031C99.4987 265.56 99.9501 263.116 100.62 260.729C100.995 259.588 101.295 258.523 101.669 257.611C101.811 257.142 101.987 256.685 102.194 256.242C102.343 255.785 102.568 255.405 102.718 255.025C102.868 254.644 103.467 253.503 103.767 252.895C104.033 252.368 104.333 251.86 104.666 251.374C104.891 251.088 105.092 250.782 105.265 250.461L105.49 250.157Z" fill="#263238"/>
<path d="M198.08 268.411L197.93 268.563L197.481 268.868L195.683 269.932L194.334 270.769L192.686 271.606C191.563 272.138 190.214 272.899 188.716 273.507L186.319 274.496L183.622 275.409C181.824 276.093 179.801 276.55 177.704 277.158C173.072 278.188 168.359 278.799 163.62 278.984C158.905 279.036 154.193 278.68 149.537 277.919C147.491 277.543 145.466 277.061 143.469 276.474L140.772 275.713L138.375 274.8C136.965 274.342 135.588 273.783 134.255 273.127L132.532 272.366L131.184 271.682L129.311 270.693L128.861 270.389L129.386 270.617L131.259 271.53L132.607 272.214L134.33 272.975C135.529 273.431 136.877 274.116 138.45 274.572L140.847 275.409L143.544 276.169C145.417 276.702 147.44 277.082 149.537 277.538C154.193 278.297 158.905 278.653 163.62 278.603C168.331 278.381 173.016 277.771 177.629 276.778C179.63 276.331 181.606 275.772 183.547 275.104C184.436 274.846 185.311 274.542 186.169 274.192L188.566 273.203C189.957 272.698 191.31 272.088 192.611 271.378L194.259 270.617L195.608 269.856L197.406 268.791L197.93 268.487L198.08 268.411Z" fill="#263238"/>
<path d="M205.946 107.466L205.722 107.618L205.272 107.999L203.324 109.596C201.676 110.889 199.279 112.867 196.208 115.148C192.691 117.92 188.987 120.437 185.121 122.679C182.795 123.945 180.393 125.063 177.929 126.025C175.245 126.989 172.451 127.603 169.614 127.851C164.12 128.208 158.633 127.051 153.733 124.504C151.596 123.42 149.543 122.174 147.59 120.777C145.717 119.484 144.069 118.191 142.571 116.974C139.65 114.616 137.327 112.562 135.679 111.117L133.806 109.52L133.357 109.064L133.207 108.911L133.357 109.064L133.881 109.444L135.754 111.041L142.721 116.822L147.74 120.549C149.722 121.876 151.772 123.095 153.883 124.2C158.764 126.64 164.181 127.766 169.614 127.47C172.402 127.223 175.147 126.609 177.78 125.645C180.238 124.729 182.618 123.61 184.896 122.298C188.78 120.103 192.509 117.638 196.058 114.92L203.25 109.444L205.197 107.999L205.722 107.618L205.946 107.466Z" fill="#263238"/>
<g opacity="0.24">
<path opacity="0.24" d="M138.376 274.8C141.896 272.062 146.916 272.747 151.26 273.659C155.605 274.572 160.1 276.093 164.52 275.485C168.94 274.876 170.962 273.355 174.258 272.595C177.554 271.834 181.525 272.442 183.398 275.333C168.734 280.14 152.925 279.953 138.376 274.8Z" fill="black"/>
</g>
<path d="M262.205 254.188L246.099 235.857L245.949 258.143L250.818 272.442L202.5 280.961L200.478 242.322L197.032 212.582C196.812 210.817 197.179 209.028 198.074 207.498C198.97 205.969 200.343 204.787 201.976 204.14L215.235 198.815L233.963 202.314L241.529 205.205C244.674 206.427 247.477 208.412 249.695 210.985L272.318 237.302" fill="#20D08F"/>
<path d="M244.975 231.446C244.975 231.37 246.024 231.522 247.672 231.294C249.855 230.927 251.885 229.923 253.515 228.403C255.115 226.893 256.236 224.934 256.736 222.775C256.948 221.874 257.098 220.959 257.186 220.037C257.239 220.287 257.264 220.542 257.261 220.797C257.241 221.487 257.165 222.174 257.036 222.851C256.557 225.101 255.406 227.146 253.74 228.708C252.084 230.263 249.987 231.248 247.747 231.522C247.081 231.655 246.398 231.681 245.724 231.598C245.2 231.522 244.975 231.522 244.975 231.446Z" fill="white"/>
<path d="M246.399 257.23C246.474 257.23 246.548 249.472 246.474 239.965C246.399 230.457 246.249 222.699 246.099 222.699C245.949 222.699 245.949 230.457 246.024 239.965C246.099 249.472 246.249 257.23 246.399 257.23Z" fill="#263238"/>
<path d="M244.601 262.859L215.46 250.917C214.303 250.464 213.296 249.687 212.554 248.678C211.811 247.669 211.365 246.468 211.265 245.213L209.167 216.766C209.167 216.766 209.392 204.748 201.976 204.14L197.781 205.813C192.312 208.78 190.964 216.842 191.713 223.079C192.762 231.902 193.211 244.452 194.335 252.134C195.309 258.447 198.905 264 204.972 265.597L240.855 273.508L244.601 262.859Z" fill="#20D08F"/>
<path d="M209.542 221.101C209.617 221.101 209.617 221.329 209.692 221.786C209.767 222.242 209.767 222.851 209.842 223.687C209.917 224.524 210.216 227.643 210.441 230.533C210.666 233.423 211.04 236.922 211.34 240.725L211.565 243.691C211.616 244.714 211.741 245.731 211.939 246.734C212.133 247.766 212.66 248.703 213.438 249.396C214.224 250.084 215.108 250.648 216.059 251.069C224.15 254.644 231.566 257.535 236.96 259.588L243.327 261.946L245.05 262.631L245.65 262.859L245.05 262.707L243.252 262.098L236.81 259.892C231.416 257.839 224 255.025 215.91 251.45C214.903 251.014 213.968 250.424 213.138 249.7C212.333 248.924 211.784 247.915 211.565 246.81C211.371 245.806 211.246 244.789 211.19 243.768C211.14 242.703 211.065 241.714 210.965 240.801C210.666 236.922 210.441 233.499 210.216 230.533C209.992 227.567 209.842 225.361 209.692 223.687C209.542 222.014 209.617 222.242 209.617 221.786C209.576 221.56 209.551 221.331 209.542 221.101Z" fill="#263238"/>
<path d="M192.837 236.542C192.912 236.542 192.912 236.694 192.912 236.922L193.062 238.063C193.137 239.052 193.212 240.421 193.361 242.094C193.511 243.768 193.736 245.821 194.036 248.027C194.334 250.432 194.759 252.818 195.309 255.177C195.646 256.396 196.124 257.57 196.732 258.675C197.381 259.646 198.134 260.539 198.98 261.338C200.318 262.787 201.888 263.996 203.624 264.913C205.215 265.765 206.938 266.331 208.718 266.586C208.718 266.662 208.569 266.662 208.344 266.586C207.988 266.596 207.634 266.544 207.295 266.434C205.964 266.203 204.676 265.767 203.475 265.141C201.703 264.241 200.084 263.06 198.68 261.642C197.855 260.769 197.103 259.828 196.433 258.828C195.769 257.741 195.264 256.563 194.935 255.329C194.355 252.951 193.929 250.537 193.661 248.103C193.361 245.821 193.212 243.768 193.062 242.094C192.912 240.421 192.912 238.976 192.837 238.063V236.542Z" fill="#263238"/>
<path d="M205.347 256.394C205.272 256.394 205.422 255.785 205.871 254.872C206.47 253.646 207.312 252.559 208.343 251.678C209.345 250.784 210.518 250.111 211.789 249.7C212.322 249.524 212.877 249.421 213.437 249.396L211.864 250.004C210.655 250.453 209.538 251.123 208.568 251.982C207.609 252.846 206.777 253.845 206.096 254.948C205.646 255.861 205.422 256.47 205.347 256.394Z" fill="#263238"/>
<path d="M211.04 234.868H211.265L211.789 235.097C212.459 235.466 213.161 235.772 213.887 236.009C217.133 237.178 220.663 237.255 223.955 236.227C227.248 235.2 230.126 233.123 232.165 230.305C233.677 228.382 234.613 226.059 234.862 223.611C235.003 222.331 234.875 221.035 234.487 219.808C234.05 218.567 233.331 217.447 232.39 216.538C231.443 215.627 230.237 215.041 228.944 214.864C228.333 214.75 227.705 214.779 227.107 214.951C226.51 215.122 225.959 215.431 225.498 215.853C225.081 216.279 224.84 216.85 224.824 217.451C224.84 218.037 225.051 218.6 225.423 219.048C226.166 219.933 227.208 220.503 228.345 220.645C230.516 220.916 232.719 220.573 234.712 219.656C236.499 218.931 238.072 217.753 239.282 216.234C240.291 215.012 241.032 213.586 241.454 212.05C241.827 210.897 242.004 209.688 241.979 208.475C242.02 207.711 241.97 206.945 241.829 206.193C241.829 205.965 241.754 205.813 241.754 205.661C241.754 205.509 241.679 205.433 241.754 205.433C242.041 206.421 242.192 207.445 242.203 208.475C242.193 209.711 242.016 210.939 241.679 212.126C241.246 213.704 240.507 215.177 239.507 216.462C238.253 217.984 236.661 219.184 234.862 219.961C232.837 220.949 230.566 221.293 228.345 220.949C227.723 220.912 227.116 220.744 226.561 220.456C226.006 220.168 225.517 219.766 225.124 219.276C224.717 218.754 224.481 218.115 224.449 217.451C224.467 216.731 224.763 216.048 225.273 215.549C225.779 215.098 226.379 214.768 227.027 214.584C227.675 214.4 228.356 214.365 229.019 214.484C230.368 214.672 231.626 215.283 232.615 216.234C233.63 217.169 234.402 218.345 234.862 219.656C235.245 220.936 235.373 222.281 235.237 223.611C234.978 226.139 234.017 228.54 232.465 230.533C229.958 233.986 226.221 236.306 222.052 236.998C219.281 237.468 216.437 237.179 213.812 236.162C212.835 235.858 211.903 235.423 211.04 234.868Z" fill="white"/>
<path d="M191.938 227.262L192.462 226.654C192.925 226.129 193.454 225.669 194.036 225.285C195.955 223.964 198.17 223.153 200.478 222.927C201.752 222.784 203.039 222.836 204.298 223.079C205.3 223.351 206.277 223.707 207.22 224.144L209.018 225.285L209.542 225.741C209.542 225.817 208.643 225.133 207.07 224.372C205.027 223.445 202.78 223.078 200.553 223.307C198.288 223.521 196.106 224.277 194.185 225.513C192.762 226.502 192.013 227.338 191.938 227.262Z" fill="white"/>
<path d="M196.657 206.954C197.365 207.623 198.144 208.21 198.979 208.704C199.916 209.188 200.931 209.497 201.976 209.616C203.262 209.781 204.568 209.601 205.764 209.094C206.96 208.587 208.004 207.771 208.793 206.726C209.445 205.909 209.952 204.982 210.291 203.988C210.553 203.02 210.704 202.025 210.74 201.021C210.796 201.297 210.821 201.577 210.815 201.858C210.872 202.601 210.796 203.349 210.59 204.064C210.256 205.107 209.75 206.084 209.092 206.954C208.248 208.026 207.171 208.885 205.946 209.464C204.685 209.967 203.322 210.15 201.976 209.997C200.89 209.865 199.843 209.502 198.904 208.932C198.249 208.587 197.644 208.152 197.106 207.639C196.935 207.426 196.785 207.196 196.657 206.954Z" fill="white"/>
<path d="M222.052 253.656C222.058 253.476 222.083 253.297 222.127 253.123C222.208 252.563 222.385 252.023 222.652 251.526C223.625 249.787 225.16 248.444 226.997 247.723C229.714 246.58 232.747 246.472 235.536 247.418C237.11 247.875 238.907 248.407 240.031 249.929C240.337 250.322 240.527 250.794 240.58 251.292C240.633 251.79 240.547 252.293 240.331 252.743C239.895 253.615 239.183 254.312 238.308 254.72C237.448 255.161 236.5 255.395 235.536 255.405C234.566 255.478 233.604 255.179 232.84 254.568C232.497 254.263 232.22 253.89 232.027 253.471C231.833 253.052 231.727 252.597 231.716 252.134C231.645 251.279 231.774 250.42 232.091 249.624C232.635 248.235 233.444 246.968 234.473 245.898C235.502 244.827 236.729 243.974 238.083 243.387C239.905 242.61 241.88 242.272 243.852 242.398C244.566 242.464 245.271 242.617 245.949 242.855C245.874 242.931 245.2 242.627 243.852 242.551C241.914 242.442 239.981 242.834 238.233 243.692C237.012 244.218 235.895 244.965 234.937 245.897C233.839 246.973 232.972 248.268 232.39 249.7C232.138 250.485 232.037 251.311 232.091 252.134C232.091 252.548 232.185 252.955 232.367 253.325C232.549 253.695 232.814 254.016 233.139 254.264C233.808 254.829 234.67 255.102 235.536 255.025C236.418 255.005 237.286 254.798 238.083 254.416C238.896 254.016 239.574 253.381 240.031 252.591C240.206 252.196 240.27 251.76 240.218 251.331C240.165 250.902 239.997 250.495 239.732 250.157C239.204 249.506 238.538 248.986 237.784 248.635C237.036 248.266 236.259 247.96 235.462 247.723C232.721 246.828 229.761 246.908 227.071 247.951C225.264 248.644 223.735 249.928 222.727 251.602C222.431 252.26 222.205 252.949 222.052 253.656Z" fill="white"/>
<path d="M202.65 264.304C202.65 264.228 203.774 264.152 205.422 263.543C207.625 262.763 209.602 261.435 211.172 259.682C212.741 257.929 213.855 255.805 214.411 253.503C214.786 251.754 214.786 250.613 214.861 250.613C214.913 250.863 214.939 251.118 214.936 251.374C214.885 252.115 214.785 252.852 214.636 253.579C214.149 255.95 213.065 258.151 211.49 259.969C209.854 261.763 207.79 263.099 205.497 263.848L203.399 264.304C202.95 264.38 202.65 264.38 202.65 264.304Z" fill="white"/>
<path d="M193.211 242.247L193.51 242.094L194.559 241.79C195.852 241.436 197.194 241.308 198.529 241.41C199.458 241.494 200.368 241.725 201.226 242.094C202.24 242.5 203.122 243.185 203.773 244.072C204.475 245.094 204.818 246.327 204.747 247.571C204.695 248.22 204.49 248.846 204.148 249.396C203.815 249.994 203.284 250.453 202.649 250.689C202.32 250.801 201.968 250.825 201.627 250.758C201.285 250.692 200.967 250.537 200.702 250.309C200.475 250.066 200.299 249.779 200.183 249.466C200.067 249.152 200.014 248.818 200.028 248.484C199.938 247.252 200.17 246.019 200.702 244.909C201.099 243.977 201.674 243.134 202.394 242.429C203.114 241.724 203.965 241.17 204.897 240.801C206.174 240.367 207.532 240.236 208.867 240.421C209.227 240.48 209.579 240.582 209.916 240.725L210.29 240.877L208.867 240.573C207.57 240.447 206.262 240.629 205.047 241.106C203.248 241.848 201.8 243.264 201.001 245.061C200.545 246.113 200.34 247.26 200.402 248.408C200.37 248.988 200.558 249.56 200.926 250.005C201.142 250.187 201.399 250.311 201.674 250.364C201.949 250.417 202.234 250.398 202.5 250.309C202.788 250.22 203.056 250.074 203.288 249.878C203.52 249.682 203.71 249.44 203.848 249.168C204.144 248.657 204.323 248.085 204.372 247.495C204.421 246.359 204.106 245.238 203.473 244.3C202.865 243.482 202.067 242.829 201.151 242.399C200.316 242.039 199.432 241.808 198.529 241.714C197.227 241.613 195.916 241.69 194.634 241.942C193.66 242.171 193.211 242.323 193.211 242.247Z" fill="white"/>
<g opacity="0.3">
<path opacity="0.3" d="M236.211 259.512C233.148 257.774 229.997 256.2 226.772 254.796C223.551 253.275 220.33 251.374 218.232 248.483C214.187 242.931 214.636 235.021 210.516 229.544C210.816 233.195 211.041 236.846 211.34 240.497C211.64 244.148 211.041 247.19 213.213 249.472C215.386 251.754 218.457 252.895 220.929 253.656C225.948 255.329 231.267 257.839 236.211 259.512Z" fill="black"/>
</g>
<path d="M286.926 301.194C286.926 301.194 311.272 308.039 312.246 308.42C313.22 308.8 313.52 314.428 311.197 314.352C310.149 314.276 292.469 314.961 290.222 314.809C287.975 314.657 281.308 311.994 281.308 311.994L286.926 301.194Z" fill="#E12E5E"/>
<path d="M297.039 310.625C297.188 310.701 297.338 309.332 298.162 307.963C298.987 306.594 299.961 305.833 299.886 305.681C298.962 306.119 298.219 306.873 297.788 307.811C297.261 308.649 296.999 309.631 297.039 310.625Z" fill="#263238"/>
<path d="M294.491 309.484C294.641 309.484 294.866 308.343 295.54 307.05C296.215 305.757 296.964 304.845 296.889 304.769C296.114 305.25 295.51 305.969 295.166 306.822C294.719 307.636 294.486 308.553 294.491 309.484Z" fill="#263238"/>
<path d="M292.094 308.8C292.244 308.8 292.169 307.583 292.693 306.214C293.069 305.411 293.521 304.647 294.042 303.932C293.967 303.78 292.918 304.54 292.318 306.061C291.91 306.914 291.83 307.89 292.094 308.8Z" fill="#263238"/>
<path d="M292.544 305.605C292.619 305.681 292.843 304.921 292.843 303.78C292.843 303.109 292.742 302.442 292.544 301.802C292.471 301.39 292.37 300.984 292.244 300.585C292.14 300.373 291.985 300.19 291.794 300.053C291.683 299.946 291.536 299.886 291.382 299.886C291.229 299.886 291.082 299.946 290.97 300.053C290.876 300.139 290.8 300.244 290.748 300.362C290.696 300.48 290.67 300.608 290.671 300.737C290.671 300.966 290.596 301.194 290.596 301.422C290.596 301.65 290.671 302.259 290.746 302.639C290.956 303.288 291.206 303.923 291.495 304.54C291.772 305.092 292.154 305.584 292.619 305.986C292.694 305.986 292.244 305.377 291.794 304.388C291.513 303.803 291.287 303.192 291.12 302.563C291.058 302.186 291.033 301.804 291.045 301.422C290.995 301.051 291.075 300.674 291.27 300.357C291.311 300.32 291.365 300.299 291.42 300.299C291.475 300.299 291.529 300.32 291.57 300.357C291.648 300.408 291.715 300.475 291.767 300.553C291.818 300.632 291.853 300.721 291.869 300.813C292.019 301.118 292.094 301.498 292.244 301.878C292.394 302.259 292.469 303.247 292.544 303.78C292.619 304.312 292.469 305.605 292.544 305.605Z" fill="#263238"/>
<path d="M292.545 305.377C292.036 305.214 291.505 305.137 290.972 305.149C290.388 305.116 289.804 305.193 289.248 305.377L288.199 305.681C287.9 305.91 287.525 306.366 287.675 306.822C287.725 307.045 287.836 307.248 287.995 307.41C288.154 307.571 288.355 307.684 288.574 307.735H289.623C290.204 307.558 290.758 307.302 291.271 306.974L292.395 305.834C292.32 305.757 291.871 306.138 291.046 306.67C290.599 307.002 290.089 307.235 289.548 307.355H288.649C288.504 307.318 288.372 307.242 288.266 307.135C288.161 307.028 288.086 306.893 288.049 306.746C288.035 306.607 288.064 306.467 288.131 306.344C288.198 306.222 288.3 306.123 288.424 306.062L289.323 305.681L290.972 305.453C291.497 305.458 292.022 305.432 292.545 305.377Z" fill="#263238"/>
<path d="M300.784 310.93C300.934 310.93 300.784 309.865 301.309 308.724C301.635 308.021 302.037 307.358 302.508 306.746C302.433 306.67 301.459 307.203 300.934 308.496C300.577 309.257 300.523 310.129 300.784 310.93Z" fill="#263238"/>
<path d="M283.779 312.07L284.753 312.527L287.45 313.363C290.5 314.037 293.618 314.344 296.739 314.276L306.103 313.972L308.949 313.82L309.998 313.668H306.103L296.739 313.82C293.649 313.925 290.557 313.67 287.525 313.059C285.202 312.603 283.779 311.994 283.779 312.07Z" fill="#263238"/>
<path d="M283.03 312.603C283.684 312.398 284.312 312.117 284.903 311.766C286.328 311.09 287.909 310.827 289.472 311.005C291.045 311.35 292.465 312.204 293.518 313.439C293.945 313.967 294.421 314.451 294.941 314.885L293.742 313.211C293.226 312.669 292.675 312.16 292.094 311.69C291.347 311.123 290.471 310.757 289.547 310.625C287.894 310.4 286.214 310.72 284.753 311.538C284.136 311.816 283.557 312.174 283.03 312.603Z" fill="#263238"/>
<path d="M261.006 294.348L237.109 310.321C235.836 311.31 237.259 315.873 239.431 315.037C240.405 314.656 259.807 309.18 261.905 308.419C264.002 307.659 269.621 302.943 269.621 302.943L261.006 294.348Z" fill="#E12E5E"/>
<path d="M254.115 306.518C254.265 306.518 253.815 305.149 252.616 304.008C251.897 303.295 250.983 302.818 249.994 302.639C249.919 302.791 251.193 303.247 252.317 304.312C252.984 304.987 253.587 305.726 254.115 306.518Z" fill="#263238"/>
<path d="M256.213 304.617C255.963 303.733 255.469 302.941 254.789 302.335C254.208 301.609 253.424 301.079 252.541 300.813C252.541 300.966 253.515 301.574 254.489 302.563C255.463 303.552 256.138 304.693 256.213 304.617Z" fill="#263238"/>
<path d="M258.31 303.247C258.297 302.281 257.922 301.357 257.261 300.661C256.71 299.903 255.915 299.365 255.013 299.14C255.728 299.672 256.382 300.285 256.961 300.966C257.86 302.107 258.16 303.247 258.31 303.247Z" fill="#263238"/>
<path d="M256.961 300.357C256.747 299.787 256.572 299.202 256.437 298.608C256.253 297.965 256.152 297.3 256.137 296.63V295.489C256.14 295.301 256.192 295.118 256.287 294.957H256.587C256.735 295.078 256.857 295.227 256.948 295.397C257.038 295.567 257.093 295.753 257.111 295.945C257.264 296.279 257.341 296.643 257.336 297.01C257.391 297.67 257.366 298.334 257.261 298.988C257.131 299.591 257.031 300.2 256.961 300.813C257.277 300.278 257.481 299.683 257.561 299.064C257.728 298.394 257.779 297.699 257.711 297.01C257.709 296.594 257.633 296.182 257.486 295.793L257.261 295.185C257.221 295.052 257.153 294.929 257.063 294.824C256.973 294.719 256.861 294.635 256.737 294.576C256.603 294.541 256.463 294.543 256.33 294.583C256.198 294.624 256.08 294.7 255.987 294.805C255.83 294.996 255.75 295.24 255.763 295.489V296.706C255.838 297.399 255.963 298.086 256.137 298.76C256.308 299.341 256.588 299.883 256.961 300.357Z" fill="#263238"/>
<path d="M256.886 300.053C257.396 299.971 257.897 299.844 258.385 299.672C258.92 299.512 259.475 299.435 260.033 299.444H261.007C261.153 299.463 261.287 299.535 261.383 299.647C261.48 299.759 261.533 299.904 261.532 300.053C261.523 300.188 261.485 300.32 261.42 300.438C261.355 300.556 261.266 300.659 261.157 300.737C260.907 300.952 260.585 301.061 260.258 301.042C259.729 301.113 259.191 301.061 258.685 300.889L257.186 300.433C257.111 300.509 257.636 300.813 258.61 301.194C259.161 301.396 259.749 301.473 260.333 301.422C260.703 301.42 261.066 301.315 261.382 301.118C261.558 300.989 261.698 300.816 261.79 300.616C261.882 300.417 261.922 300.196 261.906 299.977C261.892 299.752 261.802 299.539 261.652 299.373C261.502 299.207 261.301 299.098 261.082 299.064H260.033L258.31 299.444C257.804 299.561 257.322 299.767 256.886 300.053Z" fill="#263238"/>
<path d="M242.353 314.2C242.649 313.973 242.86 313.651 242.953 313.287C243.127 312.423 242.966 311.524 242.503 310.777C242.279 310.321 241.979 309.941 241.754 309.56C241.498 309.263 241.223 308.983 240.93 308.724C240.831 308.625 240.714 308.548 240.585 308.496C240.457 308.443 240.319 308.418 240.181 308.42C240.031 308.42 239.881 308.42 239.881 308.496C239.881 308.572 240.331 308.496 240.78 308.952L241.454 309.789L242.129 310.93C242.527 311.619 242.709 312.414 242.653 313.211C242.578 313.82 242.279 314.124 242.353 314.2Z" fill="#263238"/>
<path d="M250.669 307.887C250.692 307.481 250.631 307.075 250.489 306.695C250.347 306.315 250.127 305.969 249.845 305.681C248.946 304.616 247.822 304.312 247.822 304.464C248.442 304.887 249.019 305.371 249.545 305.909C250.294 306.898 250.519 307.963 250.669 307.887Z" fill="#263238"/>
<path d="M267.224 303.78C267.224 303.704 266.85 304.008 266.175 304.464C265.269 305.116 264.318 305.701 263.329 306.214C261.877 306.998 260.375 307.684 258.834 308.267C257.111 308.952 255.088 309.56 253.066 310.169L242.428 313.287L239.207 314.352L238.083 314.733C238.083 314.809 238.458 314.656 239.282 314.504L242.503 313.592L253.141 310.549C255.238 309.941 257.186 309.332 258.984 308.648C260.528 308.041 262.029 307.329 263.479 306.518C264.752 305.757 265.651 305.073 266.325 304.616L267.224 303.78Z" fill="#263238"/>
<path d="M268.048 304.084C267.435 303.79 266.776 303.61 266.1 303.552C264.455 303.217 262.747 303.43 261.231 304.16C260.427 304.602 259.735 305.227 259.208 305.986C258.785 306.588 258.409 307.224 258.085 307.887C257.794 308.514 257.592 309.18 257.485 309.865L258.384 308.039C259.011 306.568 260.088 305.341 261.456 304.541C262.906 303.86 264.52 303.622 266.1 303.856C267.299 303.932 268.048 304.16 268.048 304.084Z" fill="#263238"/>
<path d="M308.95 256.926C308.95 256.926 315.917 259.436 315.917 267.347C315.992 282.407 285.877 299.064 285.877 299.064L245.799 272.138L243.327 271.074C243.327 271.074 297.414 250.461 308.95 256.926Z" fill="#292929"/>
<path d="M266.1 285.753L267.149 284.993L269.921 282.939C272.168 281.114 275.314 278.604 278.685 275.637C282.056 272.671 284.978 269.933 287.075 267.955L289.548 265.521C290.072 264.913 290.447 264.608 290.372 264.532L289.398 265.369L286.851 267.727C284.753 269.704 281.757 272.367 278.386 275.333L269.696 282.711L267.074 284.917L266.1 285.753Z" fill="#455A64"/>
<path d="M297.638 262.555C296.353 262.393 295.048 262.523 293.818 262.935C292.537 263.241 291.352 263.869 290.372 264.76C290.447 264.836 291.87 263.924 293.893 263.315C295.915 262.707 297.638 262.707 297.638 262.555Z" fill="#455A64"/>
<path d="M294.192 260.197C293.254 260.552 292.444 261.189 291.869 262.022C291.16 262.768 290.712 263.73 290.596 264.76C291.049 263.88 291.576 263.04 292.169 262.25C293.143 261.033 294.267 260.273 294.192 260.197Z" fill="#455A64"/>
<path d="M311.197 308.039C311.197 307.963 310.672 307.887 310.148 308.343C309.51 308.969 309.112 309.805 309.024 310.701C308.908 311.575 309.011 312.465 309.324 313.287C309.623 313.896 309.923 314.2 309.998 314.2C310.073 314.2 309.848 313.82 309.623 313.211C309.349 312.432 309.272 311.595 309.399 310.777C309.489 309.957 309.829 309.186 310.373 308.572C310.747 308.115 311.197 308.115 311.197 308.039Z" fill="#263238"/>
<path d="M299.811 232.282L285.503 269.02L224.075 270.009L222.877 266.662L244.451 265.825L254.789 233.271L299.811 232.282Z" fill="#C7B4FF"/>
<path d="M271.045 248.179C271.52 247.931 272.056 247.828 272.587 247.882C273.119 247.936 273.624 248.145 274.042 248.483C274.38 248.824 274.61 249.259 274.703 249.733C274.797 250.208 274.749 250.699 274.566 251.146C274.386 251.591 274.087 251.976 273.704 252.258C273.32 252.54 272.866 252.708 272.393 252.743C271.88 252.763 271.373 252.619 270.943 252.333C270.513 252.047 270.182 251.632 269.996 251.146C269.771 250.157 270.071 248.712 271.045 248.179Z" fill="#EBEBEB"/>
<path d="M289.698 300.889C289.698 300.889 233.064 263.239 230.742 262.402C228.42 261.566 222.802 257.915 217.183 259.512C211.565 261.109 206.621 266.129 204.074 273.583C202.65 277.843 201.976 285.145 201.677 290.545C201.197 297.089 203.268 303.563 207.445 308.572C209.279 310.886 211.72 312.626 214.486 313.592L216.359 314.124C227.072 316.482 238.009 311.614 244.077 302.258L245.35 300.281C245.35 300.281 282.431 314.048 283.031 313.896L289.698 300.889Z" fill="#292929"/>
<path d="M219.655 290.545L219.954 290.697L220.853 291.078L224.449 292.447L237.783 297.543L257.86 305.073C265.501 307.887 273.891 310.93 282.955 314.048H283.105V313.896L287.525 305.301C288.274 303.78 289.098 302.335 289.772 300.966V300.737H289.622L246.473 272.899L233.439 264.608L229.918 262.403L229.019 261.794L228.719 261.642L229.019 261.794L229.918 262.403L233.364 264.761L246.323 273.127L289.398 301.118V300.814L287.15 305.225L282.73 313.744H282.955C273.966 310.625 265.501 307.583 257.935 304.769L237.783 297.391L224.524 292.295L220.853 291.002L219.954 290.621L219.655 290.545Z" fill="#455A64"/>
<path d="M225.498 156.602C226.472 154.016 228.569 152.799 231.266 152.19C232.625 151.853 234.045 151.856 235.403 152.201C236.76 152.545 238.014 153.221 239.057 154.168C240.406 155.461 241.454 157.21 243.177 158.047C244.9 158.884 249.545 157.438 252.167 158.96C252.934 159.454 253.519 160.191 253.831 161.058C254.142 161.925 254.163 162.872 253.89 163.751C253.588 164.626 252.998 165.368 252.22 165.853C251.443 166.338 250.524 166.536 249.62 166.414C251.418 167.326 251.792 170.065 250.519 171.662C249.245 173.259 246.923 173.715 244.975 173.183C243.099 172.468 241.426 171.292 240.106 169.76C238.837 168.168 237.487 166.645 236.061 165.197C234.562 163.828 232.765 162.687 230.742 162.611C228.719 162.534 225.498 164.36 224.075 166.718C222.651 169.076 222.127 171.89 221.678 174.628C221.228 177.366 221.003 180.105 219.955 182.691C219.805 182.995 219.655 183.299 219.355 183.375C219.056 183.451 218.606 182.995 218.381 182.539C216.34 177.65 215.246 172.407 215.16 167.098C215.16 164.056 215.535 161.165 217.408 158.731C219.28 156.297 223.625 154.852 225.498 156.602Z" fill="#263238"/>
<path d="M219.13 168.924L214.935 199.576C214.768 200.819 214.851 202.084 215.179 203.294C215.507 204.503 216.074 205.633 216.844 206.614C217.614 207.595 218.572 208.408 219.661 209.002C220.749 209.596 221.944 209.961 223.175 210.073C225.499 210.268 227.807 209.548 229.62 208.06C231.434 206.573 232.614 204.433 232.914 202.086C233.288 199.804 233.513 197.903 233.588 197.599C233.663 197.294 241.379 197.979 242.952 190.297C243.776 186.646 244.75 178.888 245.574 171.814C245.982 168.178 245.031 164.518 242.908 161.56C240.786 158.602 237.647 156.561 234.112 155.841L233.363 155.689C225.423 154.548 220.029 160.785 219.13 168.924Z" fill="#FFBE9D"/>
<path d="M233.588 197.523C230.074 196.906 226.83 195.207 224.299 192.655C224.299 192.655 225.573 198.664 233.214 199.5L233.588 197.523Z" fill="#EB996E"/>
<path d="M242.354 176.53C242.299 176.819 242.136 177.076 241.898 177.247C241.66 177.417 241.367 177.487 241.08 177.442C240.942 177.424 240.808 177.377 240.688 177.306C240.567 177.234 240.462 177.139 240.378 177.026C240.295 176.912 240.234 176.783 240.2 176.646C240.166 176.508 240.16 176.365 240.181 176.225C240.199 176.085 240.245 175.95 240.315 175.827C240.386 175.705 240.48 175.598 240.591 175.513C240.703 175.428 240.83 175.367 240.966 175.332C241.101 175.298 241.242 175.291 241.38 175.313C241.664 175.351 241.924 175.498 242.105 175.724C242.286 175.951 242.375 176.239 242.354 176.53Z" fill="#263238"/>
<path d="M243.178 175.236C243.029 175.389 242.354 174.628 241.155 174.4C239.957 174.172 239.058 174.552 238.908 174.4C238.758 174.248 239.058 174.095 239.507 173.867C240.081 173.648 240.704 173.595 241.305 173.715C241.899 173.831 242.447 174.122 242.879 174.552C243.178 174.932 243.253 175.236 243.178 175.236Z" fill="#263238"/>
<path d="M230.892 174.628C230.822 174.909 230.655 175.156 230.421 175.323C230.188 175.491 229.903 175.568 229.618 175.541C229.341 175.487 229.091 175.335 228.913 175.113C228.734 174.89 228.639 174.611 228.644 174.324C228.699 174.034 228.862 173.777 229.1 173.607C229.337 173.437 229.631 173.366 229.918 173.411C230.203 173.449 230.462 173.596 230.644 173.823C230.825 174.049 230.914 174.337 230.892 174.628Z" fill="#263238"/>
<path d="M231.716 173.183C231.566 173.259 230.892 172.498 229.693 172.27C228.494 172.042 227.595 172.422 227.445 172.27C227.296 172.118 227.595 171.966 228.045 171.814C228.603 171.539 229.235 171.457 229.844 171.581C230.452 171.705 231.005 172.027 231.416 172.498C231.716 172.803 231.791 173.107 231.716 173.183Z" fill="#263238"/>
<path d="M234.188 182.767C234.838 182.725 235.49 182.751 236.136 182.843C236.435 182.843 236.735 182.843 236.885 182.615C236.928 182.309 236.902 181.997 236.81 181.702C236.66 180.941 236.585 180.105 236.435 179.268C235.836 175.693 235.461 172.879 235.611 172.803C235.761 172.727 236.36 175.617 236.885 179.192C237.035 180.029 237.185 180.865 237.26 181.626C237.34 181.821 237.376 182.032 237.363 182.243C237.35 182.454 237.289 182.66 237.185 182.843C237.11 183.071 236.81 183.147 236.66 183.223H236.136C235.468 183.168 234.812 183.014 234.188 182.767Z" fill="#263238"/>
<path d="M230.592 182.919C230.817 182.919 230.592 184.212 231.491 185.353C232.39 186.494 233.739 186.57 233.739 186.798C233.739 187.026 233.364 186.95 232.765 186.874C232.033 186.715 231.374 186.314 230.892 185.733C230.44 185.152 230.226 184.417 230.292 183.679C230.367 183.147 230.517 182.843 230.592 182.919Z" fill="#263238"/>
<path d="M232.915 168.619C232.765 168.924 231.641 168.543 230.218 168.391C228.794 168.239 227.67 168.467 227.52 168.163C227.371 167.859 227.745 167.707 228.195 167.479C228.859 167.206 229.579 167.102 230.293 167.174C231.013 167.225 231.709 167.461 232.316 167.859C232.765 168.163 232.99 168.467 232.915 168.619Z" fill="#263238"/>
<path d="M243.403 171.738C243.178 171.966 242.429 171.586 241.455 171.358C240.481 171.129 239.657 171.129 239.507 170.825C239.357 170.521 239.657 170.445 240.031 170.293C240.572 170.046 241.18 169.992 241.755 170.141C242.307 170.252 242.808 170.546 243.178 170.977C243.478 171.358 243.553 171.662 243.403 171.738Z" fill="#263238"/>
<path d="M218.607 174.704C218.532 174.628 213.737 172.118 212.838 177.366C211.939 182.614 217.409 182.462 217.409 182.31C217.409 182.158 218.607 174.704 218.607 174.704Z" fill="#FFBE9D"/>
<path d="M216.135 180.029H215.91C215.8 180.071 215.681 180.086 215.564 180.072C215.447 180.059 215.334 180.018 215.236 179.952C214.939 179.678 214.715 179.332 214.584 178.947C214.453 178.561 214.419 178.149 214.486 177.747C214.583 177.287 214.76 176.849 215.011 176.454C215.079 176.299 215.183 176.163 215.313 176.057C215.443 175.952 215.597 175.879 215.76 175.845C215.874 175.851 215.984 175.89 216.077 175.958C216.17 176.025 216.242 176.118 216.285 176.225C216.36 176.378 216.285 176.454 216.285 176.454C216.285 176.454 216.434 176.454 216.434 176.225C216.429 176.085 216.376 175.951 216.285 175.845C216.219 175.771 216.138 175.711 216.047 175.672C215.957 175.633 215.859 175.614 215.76 175.617C215.536 175.602 215.313 175.661 215.125 175.784C214.936 175.907 214.791 176.089 214.711 176.302C214.417 176.701 214.235 177.174 214.187 177.671C214.037 178.736 214.412 179.876 215.086 180.181C215.374 180.299 215.697 180.299 215.985 180.181C216.135 180.181 216.21 180.029 216.135 180.029Z" fill="#EB996E"/>
<path d="M247.447 170.597C245.69 170.669 243.941 170.32 242.341 169.581C240.741 168.841 239.334 167.73 238.233 166.338C236.66 164.436 235.686 161.85 233.514 160.633C232.01 159.923 230.298 159.814 228.72 160.329C227.15 160.902 225.72 161.81 224.524 162.991C225.199 167.174 223.326 171.282 221.528 175.161C221.481 175.391 221.382 175.607 221.239 175.791C221.096 175.976 220.913 176.125 220.704 176.226C220.03 176.606 219.131 176.073 218.756 175.389C218.165 174.243 217.905 172.951 218.007 171.662C218.051 168.738 218.635 165.848 219.73 163.143C220.881 160.445 222.781 158.145 225.199 156.526C228.3 154.629 231.997 154.003 235.536 154.776C239.049 155.634 242.215 157.574 244.601 160.329C245.757 161.55 246.606 163.038 247.073 164.664" fill="#263238"/>
<path d="M355.564 314.048H0.435724C0.19508 314.048 0 314.451 0 314.949V315.099C0 315.596 0.19508 316 0.435724 316H355.564C355.805 316 356 315.596 356 315.099V314.949C356 314.451 355.805 314.048 355.564 314.048Z" fill="#343434"/>
</svg>