<svg viewBox="0 0 312 316" fill="none" xmlns="http://www.w3.org/2000/svg">
<path d="M273.164 197.068L297.796 313.036H276.531L273.164 197.068ZM269.962 169.804L274.15 316H300.916L269.962 169.804Z" fill="#E0E0E0"/>
<path d="M277.434 316H208.137L223.737 103.325H293.034L277.434 316Z" fill="#E6E6E6"/>
<path d="M288.518 108.56L273.657 311.061H212.899L215.526 276.191L217.579 248.829L224.065 161.902V161.803L227.76 108.56H288.518Z" fill="#F5F5F5"/>
<path d="M248.697 108.56V108.758L217.497 248.829L223.901 161.902L235.724 108.758V108.56H248.697Z" fill="white"/>
<path d="M258.303 108.56V108.758L213.309 311.061H212.899L215.526 276.191L252.72 108.758L252.802 108.56H258.303Z" fill="white"/>
<path d="M150.17 0H21.0189C16.575 0 12.9726 4.33412 12.9726 9.68053V304.66C12.9726 310.006 16.575 314.341 21.0189 314.341H150.17C154.614 314.341 158.217 310.006 158.217 304.66V9.68053C158.217 4.33412 154.614 0 150.17 0Z" fill="#C7B4FF"/>
<path opacity="0.2" d="M150.17 0H21.0189C16.575 0 12.9726 4.33412 12.9726 9.68053V304.66C12.9726 310.006 16.575 314.341 21.0189 314.341H150.17C154.614 314.341 158.217 310.006 158.217 304.66V9.68053C158.217 4.33412 154.614 0 150.17 0Z" fill="#C7B4FF"/>
<path d="M156.329 0H27.1769C22.7331 0 19.1306 4.33412 19.1306 9.68053V304.66C19.1306 310.006 22.7331 314.341 27.1769 314.341H156.329C160.772 314.341 164.375 310.006 164.375 304.66V9.68053C164.375 4.33412 160.772 0 156.329 0Z" fill="#4B0082"/>
<path d="M159.202 10.4707V303.257C159.227 303.78 159.158 304.302 159.001 304.79C158.844 305.278 158.601 305.719 158.29 306.084C157.978 306.449 157.606 306.73 157.196 306.907C156.787 307.084 156.351 307.153 155.918 307.11H27.2588C25.4525 307.11 24.5493 305.727 24.5493 303.554V10.1744C24.5493 8.19877 25.2062 6.81584 26.8483 6.81584H58.9514C59.3867 6.79584 59.8167 6.93654 60.1836 7.21906C60.5505 7.50158 60.8368 7.91239 61.0041 8.39634L62.3998 12.2488C62.5797 12.7143 62.8714 13.1042 63.2373 13.3684C63.6032 13.6325 64.0264 13.7586 64.4525 13.7305H119.217C119.652 13.7505 120.082 13.6098 120.449 13.3273C120.816 13.0448 121.102 12.6339 121.269 12.15L122.583 8.39634C122.75 7.91239 123.037 7.50158 123.403 7.21906C123.77 6.93654 124.2 6.79584 124.636 6.81584H156.328C156.723 6.79997 157.117 6.88525 157.482 7.06604C157.848 7.24682 158.178 7.51899 158.449 7.86452C158.721 8.21006 158.929 8.62108 159.058 9.07037C159.188 9.51966 159.237 9.99698 159.202 10.4707Z" fill="#E0E0E0"/>
<path opacity="0.6" d="M39.3284 18.3733H40.9705V15.6865H39.3284V18.3733Z" fill="white"/>
<path opacity="0.6" d="M36.6189 18.3733H38.261V14.7974H36.6189V18.3733Z" fill="white"/>
<path opacity="0.6" d="M33.9917 18.3733H35.6338V13.8985H33.9917V18.3733Z" fill="white"/>
<path opacity="0.6" d="M31.1999 18.3733H32.842V12.9996H31.1999V18.3733Z" fill="white"/>
<path opacity="0.6" d="M144.505 14.7185H143.52V17.4053H144.505V14.7185Z" fill="white"/>
<path opacity="0.6" d="M145.244 18.2744H153.126V13.6317H145.244V18.2744Z" fill="white"/>
<path opacity="0.6" d="M88.7559 9.1865C89.7988 9.1865 90.6443 8.16931 90.6443 6.91454C90.6443 5.65977 89.7988 4.64258 88.7559 4.64258C87.7129 4.64258 86.8674 5.65977 86.8674 6.91454C86.8674 8.16931 87.7129 9.1865 88.7559 9.1865Z" fill="white"/>
<path opacity="0.6" d="M94.3388 6.91468C94.3388 7.30765 94.2091 7.68452 93.9781 7.9624C93.7471 8.24027 93.4339 8.39639 93.1072 8.39639C92.795 8.37129 92.5025 8.20417 92.289 7.92897C92.0755 7.65377 91.9571 7.29112 91.9578 6.91468C91.9578 6.5479 92.0789 6.19614 92.2944 5.93679C92.51 5.67744 92.8024 5.53174 93.1072 5.53174C93.4201 5.5309 93.7216 5.67338 93.9503 5.93024C94.1791 6.18709 94.318 6.53907 94.3388 6.91468Z" fill="white"/>
<path d="M159.202 25.5842H24.5493V293.567H159.202V25.5842Z" fill="white"/>
<path d="M100.415 83.075C100.415 83.075 95.5704 83.6676 93.682 90.5823C93.0142 92.9429 92.7641 95.4454 92.948 97.9291C93.1318 100.413 93.7454 102.823 94.7494 105.004C95.5704 106.684 91.4652 112.117 97.0483 117.451C102.631 122.785 99.4294 129.107 99.4294 129.107L118.97 132.367C119.897 131.68 120.648 130.698 121.141 129.53C121.633 128.362 121.848 127.054 121.762 125.748C121.598 121.007 118.806 119.525 118.724 116.167C118.642 112.808 120.53 109.943 119.792 105.301C119.053 100.658 115.933 101.152 116.754 96.3116C117.164 93.7433 117.903 88.014 114.208 84.4579C110.514 80.9018 103.699 79.8152 100.415 83.075Z" fill="#2E353A"/>
<path d="M131.122 142.146C126.853 144.714 119.135 137.404 114.947 132.959L112.156 129.798L114.208 122.785L115.029 120.216C117.739 122.192 125.539 134.243 127.92 134.243C130.301 134.243 125.375 114.981 125.375 114.981L128.659 113.598C128.659 113.598 139.168 137.305 131.122 142.146Z" fill="#EBB376"/>
<path opacity="0.2" d="M114.947 132.959L112.156 129.798L114.208 122.785C115.152 126.05 115.406 129.546 114.947 132.959Z" fill="black"/>
<path opacity="0.2" d="M124.718 288.243L119.792 289.033L118.067 282.217L123.24 280.044L124.718 288.243Z" fill="black"/>
<path opacity="0.2" d="M95.8169 290.416L90.8085 290.119L90.1516 283.106L95.5706 282.019L95.8169 290.416Z" fill="black"/>
<path d="M125.129 283.995L117.739 285.576C110.35 263.251 105.013 244.581 101.318 229.172C99.2654 220.874 98.1159 213.466 96.8843 206.847L97.6233 231.147V286.366H89.3306C71.1854 181.658 84.0759 157.951 84.0759 157.951L105.834 153.407C106.706 158.259 107.31 163.176 107.64 168.125L108.625 176.719L117.164 229.666L125.129 283.995Z" fill="#E12E5E"/>
<path d="M116.672 284.489L125.785 280.834L125.703 285.477L118.067 288.44L116.672 284.489Z" fill="#407BFF"/>
<path d="M88.4275 284.983L97.9517 283.304L97.1306 287.848L89.2485 289.132L88.4275 284.983Z" fill="#407BFF"/>
<path d="M85.0612 154L83.8296 158.346L107.147 162.001L106.819 158.148L85.0612 154Z" fill="#2E353A"/>
<path d="M100.989 161.013L96.2273 160.321L96.6378 156.271L101.482 156.963L100.989 161.013Z" fill="white"/>
<path d="M91.9386 154.753L90.884 154.554L90.0139 161.239L91.0684 161.438L91.9386 154.753Z" fill="#407BFF"/>
<path d="M105.341 163.087L104.109 162.89L104.52 156.074L105.669 156.271L105.341 163.087Z" fill="#407BFF"/>
<path d="M106.737 158.148L85.061 153.999C86.3463 147.556 87.0618 140.966 87.1958 134.342C87.2779 131.675 87.2779 128.711 87.1958 125.254C87.1958 123.377 87.1137 121.402 87.0316 119.228C86.9495 117.055 86.9495 115.87 86.8673 114.092C90.0185 113.977 93.1726 114.109 96.3095 114.487C99.6591 114.882 102.98 115.575 106.244 116.561C110.349 117.944 115.029 120.117 115.029 120.117C115.029 120.117 115.686 120.611 114.865 126.044C114.044 131.477 111.909 140.367 106.737 158.148Z" fill="#407BFF"/>
<path opacity="0.6" d="M114.865 126.044C114.044 131.181 111.909 140.368 106.737 158.148L85.061 153.999C86.3463 147.556 87.0618 140.967 87.1958 134.342C87.2779 132.366 87.2779 130.193 87.2779 127.724C87.2898 126.899 87.2624 126.075 87.1958 125.254C87.1958 123.377 87.1137 121.402 87.0316 119.229C86.9495 117.648 86.9495 115.969 86.8673 114.191H89.3305C91.6295 114.289 94.0105 114.388 96.3095 114.685C99.6275 115.119 102.919 115.812 106.162 116.759C108.789 117.648 111.499 118.833 113.223 119.525L115.029 120.414C115.029 120.414 115.686 120.611 114.865 126.044Z" fill="#4B0082"/>
<path d="M105.669 117.648C106.162 120.513 103.124 121.698 103.124 121.698C98.0336 119.031 97.0483 115.771 97.0483 115.771C101.318 113.104 100.086 105.597 100.086 105.597L100.907 106.189L106.08 109.252C105.669 110.437 105.341 111.425 105.095 112.314C103.945 116.956 105.669 117.648 105.669 117.648Z" fill="#EBB376"/>
<path opacity="0.2" d="M101.318 229.171C99.2651 220.874 97.7051 213.465 96.5557 206.847C96.6346 199.05 97.1007 191.265 97.9515 183.535C97.9515 183.535 101.154 213.564 101.318 229.171Z" fill="black"/>
<path d="M113.223 119.327C113.141 119.92 111.992 121.599 109.282 122.488C108.865 122.692 108.418 122.793 107.968 122.785C106.229 123.135 104.453 123.135 102.714 122.785C100.454 122.415 98.2445 121.684 96.1452 120.611L95.0778 120.019C91.3831 117.944 89.002 115.277 89.3305 113.993L94.7494 114.388H96.3094C99.6275 114.823 102.919 115.516 106.162 116.463L107.804 117.055L108.789 117.45L113.223 119.229V119.327Z" fill="#EBB376"/>
<path d="M96.1453 120.611L95.0779 120.019C95.3947 118.141 95.2812 116.195 94.7495 114.388H95.899C96.3171 116.424 96.4007 118.537 96.1453 120.611Z" fill="#2E353A"/>
<path d="M109.282 122.488C108.865 122.692 108.418 122.792 107.968 122.785C108.281 120.918 108.225 118.989 107.804 117.154L108.789 117.549C109.245 119.134 109.413 120.818 109.282 122.488Z" fill="#2E353A"/>
<path opacity="0.2" d="M106.08 109.252C105.67 110.437 105.341 111.425 105.095 112.314C103.097 110.996 101.597 108.802 100.907 106.189L106.08 109.252Z" fill="black"/>
<path d="M105.834 85.8407C111.581 85.9395 113.387 89.5944 113.716 96.8054C114.208 105.696 112.484 111.919 105.341 109.943C95.6527 107.276 96.3095 85.7419 105.834 85.8407Z" fill="#EBB376"/>
<path d="M110.021 96.3115C110.472 97.3417 111.023 98.3033 111.663 99.1762C111.507 99.4664 111.285 99.6957 111.022 99.8361C110.76 99.9764 110.469 100.022 110.185 99.9664L110.021 96.3115Z" fill="#D58745"/>
<path d="M106.491 95.7185C106.515 95.8224 106.522 95.9311 106.51 96.0381C106.498 96.1451 106.468 96.2481 106.422 96.3406C106.376 96.4332 106.314 96.5134 106.241 96.5763C106.169 96.6392 106.086 96.6834 105.998 96.7063C105.67 96.8051 105.423 96.3112 105.423 95.7185C105.423 95.1258 105.67 94.7307 105.916 94.7307C106.162 94.7307 106.491 95.1258 106.491 95.7185Z" fill="#2E353A"/>
<path d="M105.834 94.731L106.819 94.2371C106.819 94.2371 106.326 95.3237 105.834 94.731Z" fill="#2E353A"/>
<path d="M112.402 95.521C112.402 96.1137 112.156 96.5088 111.827 96.5088C111.499 96.5088 111.253 96.1137 111.253 95.521C111.253 94.9283 111.499 94.5332 111.827 94.5332C112.156 94.5332 112.402 94.9283 112.402 95.521Z" fill="#2E353A"/>
<path d="M111.663 94.5335L112.73 94.0396C112.73 94.0396 112.238 95.0274 111.663 94.5335Z" fill="#2E353A"/>
<path d="M106.491 90.9772C106.045 90.8977 105.589 90.9458 105.161 91.1174C104.733 91.289 104.345 91.5794 104.028 91.965" stroke="#2E353A" stroke-width="0.59" stroke-linecap="round" stroke-linejoin="round"/>
<path d="M110.678 90.6809C111.074 90.5792 111.484 90.5793 111.88 90.6815C112.276 90.7836 112.65 90.9854 112.977 91.2736" stroke="#2E353A" stroke-width="0.59" stroke-linecap="round" stroke-linejoin="round"/>
<path d="M109.282 102.633C109.018 103.438 108.799 104.263 108.625 105.103H108.215C106.572 104.905 105.833 104.115 105.587 103.325C105.458 102.95 105.402 102.544 105.423 102.139C105.422 101.905 105.449 101.672 105.505 101.448C106.487 102.138 107.577 102.576 108.707 102.732L109.282 102.633Z" fill="#2E353A"/>
<path d="M108.707 102.633L108.543 103.325C106.983 103.028 105.834 102.633 105.423 102.041C105.422 101.806 105.45 101.573 105.505 101.349C106.487 102.039 107.578 102.477 108.707 102.633Z" fill="white"/>
<path d="M108.215 105.004C106.573 104.807 105.834 104.016 105.587 103.226C106.22 103.321 106.832 103.555 107.394 103.918C107.749 104.176 108.035 104.554 108.215 105.004Z" fill="#DE5753"/>
<path d="M99.4295 97.3977C99.4295 97.3977 102.221 91.7672 101.811 87.4209C101.811 87.4209 113.223 81.8891 113.716 95.8172C113.716 95.8172 114.865 83.4696 105.013 83.0745C95.16 82.6794 95.0779 100.065 100.086 105.3C100.086 105.3 97.7874 100.954 99.4295 97.3977Z" fill="#2E353A"/>
<path d="M100.415 98.8796C100.352 98.0845 100.034 97.3504 99.5275 96.8337C99.0214 96.317 98.3675 96.0587 97.7052 96.1137C95.8989 96.3113 94.9958 100.658 99.4294 101.744C100.086 101.942 100.415 101.152 100.415 98.8796Z" fill="#EBB376"/>
<path d="M101.236 87.1247C101.072 87.4211 102.55 88.5077 102.632 88.6064C103.75 89.0339 104.946 89.0682 106.08 88.7052C107.312 88.4089 109.118 87.6186 110.103 89.0016C111.089 90.3845 110.35 92.1626 111.253 93.2491C112.156 94.3357 114.373 93.8418 115.03 95.7187C115.447 96.867 115.589 98.133 115.44 99.3736C117.493 96.6077 116.754 92.1626 115.522 89.1991C112.731 82.6796 105.505 82.3833 101.236 87.1247Z" fill="#2E353A"/>
<path d="M115.276 94.632C114.584 94.2328 113.826 94.03 113.059 94.0393C112.316 94.0005 111.578 94.2054 110.924 94.632H110.842C110.623 94.4993 110.378 94.4386 110.133 94.4559C109.888 94.4733 109.651 94.5681 109.446 94.7307L109.282 94.5332C108.569 94.1076 107.779 93.9038 106.983 93.9405C106.161 93.9588 105.361 94.268 104.684 94.8295V95.1259H100.004C99.5781 95.0674 99.1474 95.171 98.7727 95.4222C98.5264 95.521 98.5264 95.8173 98.6906 96.0149C98.7727 96.2125 98.9369 96.2125 99.1011 96.0149C99.365 95.7829 99.6782 95.6458 100.004 95.6198H104.931C105.095 97.2003 105.423 98.4844 106.983 98.4844C108.543 98.4844 108.954 97.4966 109.364 95.7185C109.568 95.5116 109.823 95.3901 110.09 95.3723C110.356 95.3544 110.62 95.4413 110.842 95.6198C111.089 97.2003 111.663 98.3856 113.059 98.3856C114.455 98.3856 114.865 97.299 115.112 95.2246H115.358C115.44 94.9283 115.358 94.8295 115.276 94.632Z" fill="#407BFF"/>
<path opacity="0.3" d="M115.276 94.632C114.584 94.2328 113.826 94.03 113.059 94.0393C112.316 94.0005 111.578 94.2054 110.924 94.632H110.842C110.623 94.4993 110.378 94.4386 110.133 94.4559C109.888 94.4733 109.651 94.5681 109.446 94.7307L109.282 94.5332C108.569 94.1076 107.779 93.9038 106.983 93.9405C106.161 93.9588 105.361 94.268 104.684 94.8295V95.1259H100.004C99.5781 95.0674 99.1474 95.171 98.7727 95.4222C98.5264 95.521 98.5264 95.8173 98.6906 96.0149C98.7727 96.2125 98.9369 96.2125 99.1011 96.0149C99.365 95.7829 99.6782 95.6458 100.004 95.6198H104.931C105.095 97.2003 105.423 98.4844 106.983 98.4844C108.543 98.4844 108.954 97.4966 109.364 95.7185C109.568 95.5116 109.823 95.3901 110.09 95.3723C110.356 95.3544 110.62 95.4413 110.842 95.6198C111.089 97.2003 111.663 98.3856 113.059 98.3856C114.455 98.3856 114.865 97.299 115.112 95.2246H115.358C115.44 94.9283 115.358 94.8295 115.276 94.632Z" fill="black"/>
<path d="M107.312 94.632L106.326 97.8917C106.326 97.8917 105.341 97.6942 105.259 95.4222C105.541 95.1334 105.867 94.9148 106.219 94.7792C106.572 94.6435 106.943 94.5935 107.312 94.632Z" fill="#407BFF"/>
<path d="M113.387 94.6323L112.402 97.892C112.402 97.892 111.417 97.6945 111.335 95.4225C111.608 95.1181 111.933 94.8896 112.288 94.7531C112.643 94.6166 113.018 94.5753 113.387 94.6323Z" fill="#407BFF"/>
<path d="M125.375 114.981C125.375 114.981 123.815 113.4 123.897 112.314C123.979 111.227 129.808 106.091 130.629 106.189C131.45 106.288 133.421 107.572 133.585 108.363C133.749 109.153 128.659 113.697 128.659 113.697L125.375 114.981Z" fill="#EBB376"/>
<path d="M99.3474 133.947L101.893 129.897C101.95 129.793 102.033 129.713 102.13 129.669C102.227 129.625 102.333 129.619 102.433 129.652C102.534 129.684 102.623 129.754 102.688 129.852C102.753 129.949 102.791 130.068 102.796 130.193L103.945 135.033C104.042 135.216 104.187 135.355 104.356 135.429L108.297 137.009C108.392 137.051 108.476 137.123 108.541 137.217C108.606 137.311 108.649 137.424 108.665 137.544C108.682 137.665 108.672 137.788 108.636 137.902C108.6 138.017 108.54 138.117 108.461 138.194L104.931 141.059C104.852 141.1 104.786 141.17 104.741 141.258C104.697 141.347 104.677 141.45 104.684 141.553V146.591C104.674 146.711 104.638 146.826 104.579 146.924C104.521 147.022 104.442 147.099 104.35 147.149C104.259 147.199 104.158 147.22 104.059 147.208C103.959 147.197 103.863 147.154 103.781 147.085L100.497 144.023C100.426 143.963 100.345 143.922 100.26 143.905C100.175 143.888 100.087 143.895 100.004 143.924L95.9811 145.405C95.5706 145.603 95.1601 145.01 95.3243 144.516L96.7201 139.775C96.7625 139.679 96.7774 139.569 96.7625 139.462C96.7477 139.355 96.7039 139.256 96.638 139.182L94.2569 135.132C94.1958 135.027 94.1603 134.903 94.1544 134.775C94.1486 134.646 94.1726 134.518 94.2237 134.406C94.2749 134.293 94.3512 134.199 94.4441 134.136C94.537 134.072 94.6428 134.041 94.7495 134.046L98.9369 134.243C99.0225 134.252 99.1082 134.228 99.1818 134.174C99.2554 134.121 99.3134 134.042 99.3474 133.947Z" fill="#FFD700"/>
<path opacity="0.6" d="M88.4275 284.983L97.9517 283.304L97.1306 287.848L89.2485 289.132L88.4275 284.983Z" fill="white"/>
<path opacity="0.6" d="M116.672 284.489L125.785 280.834L125.703 285.477L118.067 288.44L116.672 284.489Z" fill="white"/>
<path d="M112.73 83.9636C116.261 86.038 118.642 88.7051 117.41 97.8917C116.179 107.078 121.598 105.498 120.941 113.005C120.284 120.513 123.979 119.624 123.158 126.242" stroke="#2E353A" stroke-width="0.41" stroke-linecap="round" stroke-linejoin="round"/>
<path opacity="0.2" d="M87.2781 127.724C87.29 126.899 87.2626 126.075 87.1959 125.254C87.1959 123.377 87.1138 121.402 87.0317 119.228L88.2633 118.636C88.4275 121.599 88.1812 125.353 87.2781 127.724Z" fill="black"/>
<path d="M88.2631 119.228C88.2485 119.695 88.1934 120.158 88.0989 120.611C88.0168 121.006 87.6063 123.575 87.1957 123.674C86.7852 123.772 85.4715 123.97 83.0905 124.661C78.4105 125.847 71.2673 129.798 70.4463 132.366C68.722 137.404 80.7915 149.752 80.7915 149.752L77.5894 152.814C77.5894 152.814 64.2063 141.849 62.8105 132.366C61.4147 122.883 78.9852 114.487 86.8673 114.092C87.1136 114.092 87.6063 115.574 87.6884 115.771C88.0836 116.861 88.2796 118.04 88.2631 119.228Z" fill="#EBB376"/>
<path d="M76.1937 145.109L80.7916 149.752C80.7916 149.752 82.3516 149.159 83.2548 153.506C84.1579 157.852 84.24 160.321 81.2842 161.408C78.3285 162.495 77.3432 162.495 77.3432 161.408C77.3432 160.321 78.3285 153.703 78.3285 153.703L73.8948 148.962L76.1937 145.109Z" fill="#EBB376"/>
<path d="M44.0084 64.899C51.0823 64.899 56.8168 57.9998 56.8168 49.4892C56.8168 40.9786 51.0823 34.0793 44.0084 34.0793C36.9345 34.0793 31.2 40.9786 31.2 49.4892C31.2 57.9998 36.9345 64.899 44.0084 64.899Z" fill="#20D08F"/>
<path d="M159.202 275.5H24.5493V294.268H159.202V275.5Z" fill="#E0E0E0"/>
<path d="M81.1201 43.9574C81.1201 45.044 80.4632 45.933 79.0674 45.933C78.3549 45.9481 77.6595 45.6692 77.0969 45.1428L77.4253 44.3525C77.6461 44.595 77.9055 44.7813 78.1877 44.9002C78.4699 45.019 78.7691 45.0679 79.0674 45.044C79.8885 45.044 80.3811 44.6489 80.3811 43.9574C80.3811 43.2659 79.9706 42.772 78.9853 42.772H78.5748V42.1793L79.9706 40.2037H77.3432V39.3147H80.8738V40.0062L79.478 42.0806C79.6896 42.0671 79.9014 42.1058 80.1002 42.194C80.299 42.2823 80.4809 42.4185 80.6345 42.5941C80.7882 42.7697 80.9105 42.9812 80.994 43.2156C81.0775 43.45 81.1204 43.7024 81.1201 43.9574Z" fill="#1DBA80"/>
<path d="M86.539 44.2537H85.4716V45.8342H84.7326V44.2537H81.7769V43.5623L84.4863 39.3147H85.3074L82.68 43.4635H84.7326V42.0806H85.4716V43.4635H86.539V44.2537Z" fill="#1DBA80"/>
<path d="M90.5622 43.9574C90.5622 45.044 89.9054 45.933 88.5096 45.933C87.797 45.9481 87.1016 45.6692 86.5391 45.1428L86.9496 44.3525C87.152 44.5976 87.3965 44.7864 87.666 44.9059C87.9355 45.0253 88.2234 45.0725 88.5096 45.044C89.3306 45.044 89.8233 44.6489 89.8233 43.9574C89.8233 43.2659 89.4127 42.772 88.5096 42.772H88.0169V42.1793L89.4127 40.2037H86.7854V39.3147H90.398V40.0062L88.9201 42.0806C89.1318 42.0671 89.3435 42.1058 89.5423 42.194C89.7412 42.2823 89.923 42.4185 90.0767 42.5941C90.2303 42.7697 90.3526 42.9812 90.4361 43.2156C90.5196 43.45 90.5625 43.7024 90.5622 43.9574Z" fill="#1DBA80"/>
<path d="M106.08 39.3147V45.8342H105.341V40.2037H104.109V39.3147H106.08Z" fill="#1DBA80"/>
<path d="M111.417 43.8588C111.418 44.1487 111.369 44.4356 111.272 44.7011C111.175 44.9666 111.033 45.2047 110.855 45.4002C110.677 45.5956 110.467 45.744 110.239 45.8358C110.01 45.9276 109.768 45.9608 109.528 45.9332C108.051 45.9332 107.229 44.7478 107.229 42.6734C107.229 40.599 108.297 39.3149 109.775 39.3149C110.263 39.2709 110.75 39.4089 111.171 39.71L110.842 40.4015C110.541 40.2008 110.201 40.0987 109.857 40.1051C108.707 40.1051 108.051 40.8954 108.051 42.5747V42.7722C108.228 42.4792 108.464 42.2443 108.737 42.089C109.009 41.9337 109.31 41.863 109.611 41.8832C109.84 41.8555 110.071 41.886 110.289 41.9728C110.508 42.0596 110.709 42.2008 110.879 42.3871C111.05 42.5734 111.186 42.8006 111.278 43.0542C111.371 43.3077 111.418 43.5819 111.417 43.8588ZM110.678 43.8588C110.678 43.1673 110.185 42.6734 109.446 42.6734C109.293 42.6447 109.136 42.6565 108.987 42.7081C108.838 42.7596 108.7 42.8496 108.583 42.9719C108.466 43.0941 108.372 43.2456 108.308 43.4159C108.245 43.5861 108.213 43.771 108.215 43.9576C108.215 44.5503 108.625 45.143 109.528 45.143C109.675 45.1566 109.823 45.1335 109.962 45.0751C110.101 45.0167 110.229 44.9243 110.337 44.8036C110.445 44.683 110.531 44.5368 110.59 44.3742C110.648 44.2116 110.678 44.0361 110.678 43.8588Z" fill="#1DBA80"/>
<path d="M113.716 39.3147V45.8342H112.895V40.2037H111.745V39.3147H113.716Z" fill="#1DBA80"/>
<path d="M117.082 42.9696L116.097 44.155V45.8342H115.276V39.3147H116.097V42.9696L118.97 39.3147H119.874L117.575 42.2781L120.038 45.8342H119.135L117.082 42.9696Z" fill="#1DBA80"/>
<path d="M137.444 39.3147V40.0062L135.228 45.8342H134.406L136.541 40.2037H134.078V41.2903H133.339V39.3147H137.444Z" fill="#1DBA80"/>
<path d="M142.124 43.8587C142.114 44.1531 142.054 44.442 141.948 44.7077C141.843 44.9735 141.693 45.2106 141.509 45.4046C141.324 45.5986 141.109 45.7455 140.876 45.8364C140.643 45.9272 140.397 45.9601 140.154 45.9331C138.758 45.9331 137.937 44.7477 137.937 42.6733C137.937 40.5989 139.004 39.3148 140.482 39.3148C140.943 39.2784 141.403 39.4166 141.796 39.7099L141.549 40.4014C141.219 40.2006 140.852 40.0989 140.482 40.105C139.415 40.105 138.676 40.8953 138.676 42.5746V42.7721C138.853 42.4791 139.089 42.2442 139.362 42.0889C139.634 41.9336 139.935 41.8629 140.236 41.8831C140.469 41.856 140.704 41.8863 140.927 41.9722C141.15 42.058 141.356 42.1977 141.533 42.3825C141.71 42.5674 141.853 42.7936 141.955 43.0474C142.056 43.3012 142.114 43.5772 142.124 43.8587ZM141.385 43.8587C141.385 43.1672 140.893 42.6733 140.154 42.6733C140 42.6446 139.844 42.6564 139.695 42.708C139.545 42.7595 139.408 42.8495 139.29 42.9718C139.173 43.094 139.079 43.2455 139.016 43.4158C138.952 43.586 138.92 43.7709 138.922 43.9575C138.922 44.5502 139.333 45.1429 140.154 45.1429C140.307 45.1716 140.464 45.1598 140.613 45.1082C140.762 45.0567 140.9 44.9667 141.017 44.8444C141.134 44.7222 141.228 44.5707 141.291 44.4004C141.355 44.2302 141.387 44.0453 141.385 43.8587Z" fill="#1DBA80"/>
<path d="M146.886 43.8587C146.876 44.1531 146.816 44.442 146.711 44.7077C146.605 44.9735 146.455 45.2106 146.271 45.4046C146.087 45.5986 145.872 45.7455 145.639 45.8364C145.406 45.9272 145.16 45.9601 144.916 45.9331C143.52 45.9331 142.699 44.7477 142.699 42.6733C142.699 40.5989 143.684 39.3148 145.244 39.3148C145.706 39.2784 146.165 39.4166 146.558 39.7099L146.312 40.4014C145.981 40.2006 145.615 40.0989 145.244 40.105C144.177 40.105 143.438 40.8953 143.438 42.5746V42.7721C143.616 42.4791 143.851 42.2442 144.124 42.0889C144.396 41.9336 144.697 41.8629 144.998 41.8831C145.231 41.856 145.466 41.8863 145.689 41.9722C145.912 42.058 146.118 42.1977 146.295 42.3825C146.472 42.5674 146.615 42.7936 146.717 43.0474C146.819 43.3012 146.876 43.5772 146.886 43.8587ZM146.065 43.8587C146.065 43.1672 145.655 42.6733 144.834 42.6733C144.683 42.6599 144.531 42.6825 144.387 42.7398C144.243 42.7972 144.111 42.8881 143.996 43.0074C143.882 43.1268 143.788 43.2721 143.72 43.4352C143.653 43.5982 143.613 43.7757 143.602 43.9575C143.602 44.5502 144.095 45.1429 144.916 45.1429C145.063 45.1565 145.21 45.1334 145.35 45.075C145.489 45.0166 145.616 44.9242 145.724 44.8035C145.832 44.6829 145.918 44.5367 145.977 44.3741C146.036 44.2115 146.066 44.036 146.065 43.8587Z" fill="#1DBA80"/>
<path d="M109.446 58.6758H76.4401C75.7599 58.6758 75.2085 59.3392 75.2085 60.1575V64.6026C75.2085 65.421 75.7599 66.0843 76.4401 66.0843H109.446C110.127 66.0843 110.678 65.421 110.678 64.6026V60.1575C110.678 59.3392 110.127 58.6758 109.446 58.6758Z" fill="#C7B4FF"/>
<path d="M147.954 58.6758H114.947C114.267 58.6758 113.716 59.3392 113.716 60.1575V64.6026C113.716 65.421 114.267 66.0843 114.947 66.0843H147.954C148.634 66.0843 149.185 65.421 149.185 64.6026V60.1575C149.185 59.3392 148.634 58.6758 147.954 58.6758Z" fill="#C7B4FF"/>
<path d="M51.7263 285.472H44.0084C43.1922 285.472 42.5305 286.268 42.5305 287.25V296.565C42.5305 297.547 43.1922 298.343 44.0084 298.343H51.7263C52.5425 298.343 53.2042 297.547 53.2042 296.565V287.25C53.2042 286.268 52.5425 285.472 51.7263 285.472Z" fill="#1DBA80" fill-opacity="0.5"/>
<path d="M81.5305 285.472H73.8126C72.9964 285.472 72.3347 286.268 72.3347 287.25V296.565C72.3347 297.547 72.9964 298.343 73.8126 298.343H81.5305C82.3467 298.343 83.0084 297.547 83.0084 296.565V287.25C83.0084 286.268 82.3467 285.472 81.5305 285.472Z" fill="#1DBA80" fill-opacity="0.5"/>
<path d="M111.335 285.472H103.617C102.801 285.472 102.139 286.268 102.139 287.25V296.565C102.139 297.547 102.801 298.343 103.617 298.343H111.335C112.151 298.343 112.813 297.547 112.813 296.565V287.25C112.813 286.268 112.151 285.472 111.335 285.472Z" fill="#1DBA80" fill-opacity="0.5"/>
<path d="M141.057 285.472H133.339C132.523 285.472 131.861 286.268 131.861 287.25V296.565C131.861 297.547 132.523 298.343 133.339 298.343H141.057C141.873 298.343 142.535 297.547 142.535 296.565V287.25C142.535 286.268 141.873 285.472 141.057 285.472Z" fill="#1DBA80" fill-opacity="0.5"/>
<path d="M311.618 314.123H0.38187C0.170969 314.123 0 314.496 0 314.956V315.094C0 315.555 0.170969 315.928 0.38187 315.928H311.618C311.829 315.928 312 315.555 312 315.094V314.956C312 314.496 311.829 314.123 311.618 314.123Z" fill="#343434"/>
<path d="M262.833 21.0264H247.315C245.456 21.0264 243.949 22.8396 243.949 25.0764V43.7657C243.949 46.0025 245.456 47.8157 247.315 47.8157H262.833C264.692 47.8157 266.2 46.0025 266.2 43.7657V25.0764C266.2 22.8396 264.692 21.0264 262.833 21.0264Z" fill="#4B0082"/>
<path d="M252.703 31.3011L254.394 26.6493C254.429 26.5319 254.495 26.431 254.581 26.3609C254.667 26.2909 254.769 26.2553 254.872 26.2591C254.976 26.263 255.076 26.3062 255.158 26.3826C255.24 26.459 255.3 26.5646 255.33 26.6844L257.385 31.0695C257.514 31.2195 257.681 31.3141 257.86 31.3387L261.999 31.7715C262.1 31.7858 262.195 31.8319 262.277 31.9052C262.358 31.9785 262.421 32.0764 262.461 32.1888C262.5 32.3012 262.514 32.4242 262.502 32.5453C262.489 32.6664 262.45 32.7813 262.388 32.8782L259.509 36.6534C259.44 36.7153 259.39 36.8016 259.364 36.9002C259.338 36.9987 259.338 37.1045 259.365 37.2027L260.34 42.102C260.354 42.2216 260.341 42.3433 260.303 42.455C260.265 42.5667 260.203 42.6645 260.124 42.7387C260.045 42.8128 259.951 42.8608 259.852 42.8777C259.752 42.8947 259.651 42.8801 259.558 42.8354L255.771 40.7776C255.691 40.7391 255.604 40.7228 255.518 40.7301C255.432 40.7373 255.348 40.7679 255.273 40.8196L251.647 43.3878C251.286 43.695 250.772 43.2336 250.836 42.7073L251.276 37.7051C251.298 37.5999 251.292 37.4887 251.257 37.3887C251.221 37.2887 251.16 37.2054 251.081 37.1517L247.982 33.8802C247.902 33.7948 247.843 33.6843 247.813 33.5611C247.782 33.4379 247.781 33.3069 247.809 33.1828C247.837 33.0587 247.893 32.9464 247.971 32.8586C248.049 32.7707 248.146 32.7108 248.25 32.6855L252.361 31.7043C252.446 31.6886 252.524 31.6412 252.586 31.5689C252.647 31.4965 252.688 31.4029 252.703 31.3011Z" fill="#FFD700"/>
<path d="M250.585 47.3159C250.585 47.3159 250.421 51.6623 246.234 55.5147C247.895 54.8274 249.427 53.7482 250.738 52.3405C252.049 50.9327 253.114 49.2246 253.869 47.3159H250.585Z" fill="#4B0082"/>
<path d="M245.413 91.6063L242.211 79.889C241.806 79.3839 241.498 78.7791 241.307 78.1167C241.061 77.132 241.718 68.9595 242.128 68.3687C242.539 67.7779 247.876 67.2856 248.451 67.581C249.025 67.8764 247.63 75.6551 247.547 76.7382C247.381 77.6819 247.075 78.5823 246.644 79.3967L250.011 89.637L245.413 91.6063Z" fill="#EBB376"/>
<path d="M250.421 117.404C245.33 120.555 233.097 112.875 228.006 107.459L224.312 103.619L228.006 91.0157L228.992 87.7664C232.276 90.228 241.061 102.044 243.853 102.044C246.644 102.044 241.307 86.191 241.307 86.191L249.764 84.2217C249.764 84.2217 260.274 111.595 250.421 117.404Z" fill="#4B0082"/>
<path opacity="0.5" d="M250.421 117.404C245.741 120.26 235.232 114.155 229.566 109.035L228.006 107.459L224.312 103.619L226.282 96.8251L228.006 91.0157L228.992 87.7664C232.276 90.228 241.061 102.044 243.853 102.044C246.644 102.044 241.307 86.191 241.307 86.191L249.764 84.2217C249.764 84.2217 260.274 111.595 250.421 117.404Z" fill="white"/>
<path d="M237.038 77.0338C237.026 77.1452 237.034 77.2583 237.062 77.3655C237.09 77.4728 237.136 77.5717 237.199 77.6556C237.261 77.7395 237.337 77.8065 237.423 77.8521C237.508 77.8977 237.601 77.9208 237.695 77.92H245.248C245.453 77.9212 245.65 77.8311 245.802 77.6672C245.954 77.5033 246.049 77.2775 246.069 77.0338L247.794 59.3102C247.794 58.8178 247.465 58.2271 247.055 58.2271H239.583C239.365 58.2707 239.165 58.4013 239.016 58.5978C238.867 58.7943 238.778 59.0452 238.762 59.3102L237.038 77.0338Z" fill="#1DBA80"/>
<path d="M239.173 59.5071L237.531 76.7384H244.92L246.562 59.5071H239.173Z" fill="#D8FFF1"/>
<path opacity="0.3" d="M237.038 77.0338C237.026 77.1452 237.034 77.2583 237.062 77.3655C237.09 77.4728 237.136 77.5717 237.199 77.6556C237.261 77.7395 237.337 77.8065 237.423 77.8521C237.508 77.8977 237.601 77.9208 237.695 77.92H244.427C244.632 77.9212 244.829 77.8311 244.981 77.6672C245.133 77.5033 245.228 77.2775 245.248 77.0338L246.973 59.3102C246.973 58.8178 246.644 58.2271 246.234 58.2271H239.583C239.365 58.2707 239.165 58.4013 239.016 58.5978C238.867 58.7943 238.778 59.0452 238.762 59.3102L237.038 77.0338Z" fill="white"/>
<path opacity="0.2" d="M229.566 109.035L228.006 107.459L224.312 103.619L226.282 96.8252L227.514 93.3789C227.514 93.3789 230.387 101.847 229.566 109.035Z" fill="black"/>
<path d="M242.375 300.647L236.956 301.828L234.657 292.868L232.604 284.695L238.926 282.037L240.815 291.883L242.375 300.647Z" fill="#E4897B"/>
<path opacity="0.2" d="M240.815 292.08L234.739 293.065L232.686 284.695L238.926 282.037L240.815 292.08Z" fill="black"/>
<path d="M205.92 303.404H200.337L199.434 294.148L198.613 285.68L205.181 284.4L205.591 294.443L205.92 303.404Z" fill="#E4897B"/>
<path opacity="0.2" d="M205.591 294.64L199.434 294.345L198.613 285.778L205.181 284.4L205.591 294.64Z" fill="black"/>
<path d="M241.307 286.861L232.276 288.732C223.244 261.655 216.758 239.008 212.242 220.201C209.779 210.158 207.89 201.099 206.413 193.123L206.823 222.663V289.619H197.709C175.459 162.599 191.223 133.651 191.223 133.651L217.743 128.137C218.81 132.961 219.549 140.642 219.96 145.959L221.192 156.494L231.619 220.89L241.307 286.861Z" fill="#C7B4FF"/>
<path d="M230.962 287.452L242.046 283.021L241.964 288.732L232.686 292.179L230.962 287.452Z" fill="#407BFF"/>
<path opacity="0.6" d="M230.962 287.452L242.046 283.021L241.964 288.732L232.686 292.179L230.962 287.452Z" fill="white"/>
<path d="M196.478 288.043L208.137 285.975L207.152 291.588L197.545 293.163L196.478 288.043Z" fill="#407BFF"/>
<path opacity="0.6" d="M196.478 288.043L208.137 285.975L207.152 291.588L197.545 293.163L196.478 288.043Z" fill="white"/>
<path opacity="0.2" d="M213.474 225.223L212.242 220.201C210.025 211.044 208.465 202.773 206.823 195.388L205.838 181.8C205.838 181.8 211.503 166.735 209.368 156.199C209.615 156.79 213.392 168.31 211.914 179.831C211.568 194.986 212.089 210.153 213.474 225.223Z" fill="black"/>
<path d="M205.838 303.404C205.838 303.404 206.413 311.675 205.838 312.561C205.263 313.447 192.947 312.758 191.223 311.478C189.499 310.198 192.537 307.933 194.343 307.835C196.149 307.736 200.419 304.684 200.337 303.404C200.255 302.124 205.838 303.404 205.838 303.404Z" fill="#E4897B"/>
<path d="M196.478 306.751C196.478 306.751 194.097 310.099 195 312.265H206.823V314.235H187.939C187.939 314.235 187.364 305.57 196.478 306.751Z" fill="#C7B4FF"/>
<path d="M242.375 300.351C242.375 300.351 244.427 309.213 244.017 310.099C243.606 310.985 231.29 312.462 229.32 311.478C227.349 310.493 230.305 307.736 232.029 307.342C233.754 306.948 237.202 303.01 236.874 301.828C236.545 300.647 242.375 300.351 242.375 300.351Z" fill="#E4897B"/>
<path d="M234.082 305.964C234.082 305.964 232.029 309.607 233.179 311.675L244.92 309.804L245.084 311.675L226.446 314.727C226.446 314.727 224.886 306.259 234.082 305.964Z" fill="#C7B4FF"/>
<path opacity="0.2" d="M220.371 149.208L187.2 150.882C188.842 137.983 191.223 133.651 191.223 133.651L217.743 128.137C218.811 132.961 219.55 140.642 219.96 145.959L220.371 149.208Z" fill="black"/>
<path d="M216.758 73.3903L216.512 73.5873C215.484 74.5139 214.311 75.1835 213.063 75.5565C209.451 76.5412 206.987 75.9504 205.345 73.9811C203.129 71.0272 202.554 65.8086 202.882 59.5068C202.877 56.9806 203.267 54.4757 204.032 52.122C204.028 52.0686 204.033 52.0149 204.047 51.9641C204.061 51.9134 204.084 51.8666 204.114 51.8266C204.57 50.5097 205.286 49.3461 206.202 48.4367C207.118 47.5273 208.205 46.8996 209.369 46.608C210.39 46.3156 211.439 46.1832 212.489 46.2141C222.752 45.9187 224.64 66.3009 216.758 73.3903Z" fill="#EBB376"/>
<path opacity="0.2" d="M216.512 73.5875C215.474 74.4513 214.301 75.0542 213.063 75.3598C209.45 76.4429 206.987 75.6552 205.345 73.6859C207.539 74.3142 209.844 74.0724 211.914 72.9967C213.309 72.209 214.952 72.6028 216.512 73.5875Z" fill="black"/>
<path d="M217.579 84.7139C218.236 88.1601 214.377 89.6371 214.377 89.6371C208.219 86.4862 207.07 82.4492 207.07 82.4492C212.242 79.2983 210.764 70.1411 210.764 70.1411L211.832 70.7319L219.139 72.5043C219.139 72.5043 217.086 77.2306 216.84 78.2152C215.444 83.9261 217.579 84.7139 217.579 84.7139Z" fill="#EBB376"/>
<path d="M203.95 52.0237C203.95 52.0237 203.457 60.6885 210.272 64.4302C210.272 64.4302 213.145 73.3904 217.497 73.4889C223.326 73.6858 228.581 63.6425 226.528 53.4022C223.901 40.2079 207.152 39.1248 203.95 52.0237Z" fill="#2E353A"/>
<path d="M206.823 61.8702C206.854 61.3912 206.964 60.9243 207.146 60.4964C207.328 60.0685 207.579 59.688 207.885 59.3768C208.19 59.0657 208.543 58.83 208.925 58.6834C209.306 58.5367 209.708 58.482 210.108 58.5224C212.242 58.8178 213.31 64.1349 207.973 65.4149C207.152 65.6119 206.741 64.7257 206.823 61.8702Z" fill="#EBB376"/>
<path d="M205.427 51.6298C205.427 51.6298 202.554 52.319 200.747 50.2513C198.941 48.1835 199.434 43.2603 203.128 42.2757C206.823 41.291 209.04 43.7526 209.368 46.1158C209.465 46.799 209.435 47.4993 209.28 48.1671C209.126 48.8348 208.851 49.4537 208.475 49.9798C208.099 50.5059 207.631 50.9264 207.104 51.2116C206.578 51.4967 206.005 51.6395 205.427 51.6298Z" fill="#2E353A"/>
<path d="M202.472 44.1465C201.322 44.1465 200.419 45.525 200.419 47.3958C200.419 49.2666 201.322 50.5467 202.472 50.5467C203.621 50.5467 204.524 49.1682 204.524 47.3958C204.524 45.6234 203.621 44.1465 202.472 44.1465Z" fill="#C7B4FF"/>
<path d="M220.781 48.2821C220.781 48.2821 222.505 43.3589 229.238 44.1466C235.971 44.9344 238.844 54.19 235.806 60.1964C232.768 66.2027 234.329 69.6489 236.053 70.7321C237.777 71.8152 238.105 75.4584 235.314 76.9353C232.522 78.4123 233.672 81.957 235.314 81.4647C235.314 81.4647 234.411 82.4493 231.947 81.5631C229.484 80.677 230.47 76.9353 231.701 75.2614C232.933 73.5875 228.499 73.686 227.432 69.1566C226.364 64.6273 228.253 58.3255 224.969 58.5225C221.684 58.7194 219.714 51.3345 220.781 48.2821Z" fill="#2E353A"/>
<path d="M203.949 81.4646C203.949 81.4646 209.943 77.6245 216.512 80.3815C223.08 83.1385 221.602 88.2586 221.602 88.2586L203.949 81.4646Z" fill="#4B0082"/>
<path opacity="0.5" d="M203.949 81.4646C203.949 81.4646 209.943 77.6245 216.512 80.3815C223.08 83.1385 221.602 88.2586 221.602 88.2586L203.949 81.4646Z" fill="white"/>
<path d="M228.992 87.7662C228.992 87.7662 223.244 85.1077 218.236 83.4338C214.265 82.2792 210.232 81.4567 206.166 80.9722C202.325 80.4317 198.455 80.2342 194.59 80.3814C194.672 82.6461 194.754 84.7138 194.836 86.6831C194.918 88.6524 195 91.7048 195.082 93.9695C195.164 98.2035 195.164 101.748 195.082 104.998C194.925 111.989 194.21 118.946 192.948 125.774L187.2 142.414L221.602 147.731L219.632 131.288C225.379 111.398 227.76 100.862 228.745 94.9541C229.731 89.0463 228.992 87.7662 228.992 87.7662Z" fill="#4B0082"/>
<path opacity="0.6" d="M228.745 94.9542C228.253 97.9082 227.432 102.044 225.954 107.853C224.476 113.663 222.505 121.343 219.632 131.288L221.602 147.731L219.221 147.337H218.4L213.884 146.648L213.063 146.451L208.794 145.86L207.973 145.663L202.225 144.876L201.404 144.679L194.261 143.596H193.44L187.2 142.611L192.948 125.971C194.21 119.143 194.925 112.186 195.082 105.195V102.831C195.164 100.271 195.164 97.4159 195.082 94.1665C195 92.985 195 91.8034 195 90.5233C195 89.2433 194.918 88.1602 194.836 86.8802C194.754 85.6001 194.672 82.8431 194.59 80.5784C196.642 80.4636 198.698 80.4965 200.748 80.6769H201.569L206.166 81.1692H207.152C209.468 81.4514 211.77 81.8786 214.049 82.4493L214.788 82.6462L218.236 83.5324L219.714 84.1232L220.535 84.3201L225.215 86.1909L225.954 86.5848L228.992 87.8648C228.992 87.8648 229.731 88.3571 228.745 94.9542Z" fill="white"/>
<path d="M214.787 82.5475C214.623 88.6523 213.638 104.997 209.286 127.053L208.794 145.762L207.973 145.565L208.465 126.955C211.41 112.311 213.279 97.3859 214.048 82.3506L214.787 82.5475Z" fill="#1DBA80"/>
<path d="M213.556 126.955L213.884 146.55L213.063 146.353L212.735 126.758C216.43 114.942 218.893 92.7879 219.714 84.123L220.535 84.32C219.632 93.0833 217.169 115.041 213.556 126.955Z" fill="#1DBA80"/>
<path d="M217.661 128.629L219.221 147.337H218.4L216.758 128.531V128.334C220.781 118.389 223.901 95.6435 225.133 86.1909L225.871 86.5848C224.804 96.0374 221.602 118.487 217.661 128.629Z" fill="#1DBA80"/>
<path d="M207.152 81.0706C206.987 88.6524 206.495 108.345 204.36 125.577L202.225 144.777L201.404 144.58L203.539 125.478C205.206 110.722 206.138 95.8608 206.331 80.9722L207.152 81.0706Z" fill="#1DBA80"/>
<path d="M201.568 80.48C201.486 90.8188 201.076 115.632 199.105 124.691L194.261 143.497H193.44L198.366 124.494C200.255 115.632 200.665 90.7203 200.747 80.5784L201.568 80.48Z" fill="#1DBA80"/>
<g opacity="0.4">
<path opacity="0.4" d="M214.787 82.5475C214.623 88.6523 213.638 104.997 209.286 127.053L208.794 145.762L207.973 145.565L208.465 126.955C211.41 112.311 213.279 97.3859 214.048 82.3506L214.787 82.5475Z" fill="white"/>
<path opacity="0.4" d="M213.556 126.955L213.884 146.55L213.063 146.353L212.735 126.758C216.43 114.943 218.893 92.7882 219.714 84.1233L220.535 84.3202C219.632 93.0836 217.169 115.041 213.556 126.955Z" fill="white"/>
<path opacity="0.4" d="M217.661 128.629L219.221 147.337H218.4L216.758 128.531V128.334C220.781 118.389 223.901 95.6435 225.133 86.1909L225.871 86.5848C224.804 96.0374 221.602 118.487 217.661 128.629Z" fill="white"/>
<path opacity="0.4" d="M207.152 81.0706C206.987 88.6524 206.495 108.345 204.36 125.577L202.225 144.777L201.404 144.58L203.539 125.478C205.206 110.722 206.138 95.8608 206.331 80.9722L207.152 81.0706Z" fill="white"/>
<path opacity="0.4" d="M201.568 80.48C201.486 90.8188 201.076 115.632 199.105 124.691L194.261 143.497H193.44L198.366 124.494C200.255 115.632 200.665 90.7203 200.747 80.5784L201.568 80.48Z" fill="white"/>
</g>
<path opacity="0.2" d="M195.082 102.635C195.164 100.074 195.164 97.219 195.082 93.9696C195 92.7881 195 91.6065 195 90.3265C195.887 89.8909 196.833 89.6571 197.792 89.6372C197.792 89.6372 198.941 98.2036 195.082 102.635Z" fill="black"/>
<path d="M189.581 124.494L192.126 132.666C192.126 132.666 194.097 133.159 192.865 138.377C191.634 143.596 190.566 146.254 186.872 145.368C183.177 144.482 182.11 143.694 182.684 142.513C183.259 141.331 187.529 135.029 187.529 135.029L185.147 126.857L189.581 124.494Z" fill="#EBB376"/>
<path d="M194.589 80.3816C194.589 80.3816 200.665 86.5849 196.149 97.5144C196.149 97.5144 187.857 103.127 187.2 104.21C186.543 105.293 192.373 127.546 192.373 127.546C192.373 127.546 190.566 133.355 184.326 131.583C184.326 131.583 174.966 108.641 174.145 101.158C173.324 93.6743 194.589 80.3816 194.589 80.3816Z" fill="#4B0082"/>
<path opacity="0.5" d="M194.589 80.3816C194.589 80.3816 200.665 86.5849 196.149 97.5144C196.149 97.5144 187.857 103.127 187.2 104.21C186.543 105.293 192.373 127.546 192.373 127.546C192.373 127.546 190.566 133.355 184.326 131.583C184.326 131.583 174.966 108.641 174.145 101.158C173.324 93.6743 194.589 80.3816 194.589 80.3816Z" fill="white"/>
</svg>
